<svg xmlns="http://www.w3.org/2000/svg" xmlns:xlink="http://www.w3.org/1999/xlink" width="300" zoomAndPan="magnify" viewBox="0 0 224.87999 44.999999" height="60" preserveAspectRatio="xMidYMid meet" version="1.0"><defs><g/></defs><g fill="#222222" fill-opacity="1"><g transform="translate(44.63141, 29.997629)"><g><path d="M 0.484375 -7.859375 C 0.484375 -8.796875 0.648438 -9.71875 0.984375 -10.625 C 1.316406 -11.539062 1.804688 -12.363281 2.453125 -13.09375 C 3.097656 -13.820312 3.878906 -14.410156 4.796875 -14.859375 C 5.710938 -15.304688 6.757812 -15.53125 7.9375 -15.53125 C 9.3125 -15.53125 10.515625 -15.222656 11.546875 -14.609375 C 12.578125 -13.992188 13.335938 -13.175781 13.828125 -12.15625 L 10.59375 -9.859375 C 10.457031 -10.234375 10.285156 -10.539062 10.078125 -10.78125 C 9.867188 -11.03125 9.640625 -11.226562 9.390625 -11.375 C 9.148438 -11.519531 8.890625 -11.617188 8.609375 -11.671875 C 8.335938 -11.734375 8.085938 -11.765625 7.859375 -11.765625 C 7.316406 -11.765625 6.851562 -11.644531 6.46875 -11.40625 C 6.082031 -11.164062 5.765625 -10.851562 5.515625 -10.46875 C 5.265625 -10.082031 5.078125 -9.644531 4.953125 -9.15625 C 4.835938 -8.675781 4.78125 -8.195312 4.78125 -7.71875 C 4.78125 -7.1875 4.847656 -6.671875 4.984375 -6.171875 C 5.128906 -5.679688 5.332031 -5.25 5.59375 -4.875 C 5.863281 -4.5 6.191406 -4.195312 6.578125 -3.96875 C 6.960938 -3.738281 7.398438 -3.625 7.890625 -3.625 C 8.140625 -3.625 8.394531 -3.65625 8.65625 -3.71875 C 8.914062 -3.789062 9.164062 -3.898438 9.40625 -4.046875 C 9.644531 -4.203125 9.863281 -4.398438 10.0625 -4.640625 C 10.257812 -4.878906 10.414062 -5.175781 10.53125 -5.53125 L 13.984375 -3.453125 C 13.765625 -2.890625 13.429688 -2.382812 12.984375 -1.9375 C 12.546875 -1.488281 12.046875 -1.109375 11.484375 -0.796875 C 10.921875 -0.492188 10.316406 -0.265625 9.671875 -0.109375 C 9.035156 0.046875 8.414062 0.125 7.8125 0.125 C 6.738281 0.125 5.75 -0.0976562 4.84375 -0.546875 C 3.945312 -1.003906 3.175781 -1.609375 2.53125 -2.359375 C 1.882812 -3.117188 1.378906 -3.976562 1.015625 -4.9375 C 0.660156 -5.894531 0.484375 -6.867188 0.484375 -7.859375 Z M 0.484375 -7.859375 "/></g></g></g><g fill="#222222" fill-opacity="1"><g transform="translate(58.874838, 29.997629)"><g><path d="M 1.328125 0 L 1.328125 -15.4375 L 5.5625 -15.4375 L 5.5625 -3.703125 L 12.578125 -3.703125 L 12.578125 0 Z M 1.328125 0 "/></g></g></g><g fill="#222222" fill-opacity="1"><g transform="translate(71.661306, 29.997629)"><g><path d="M 1.328125 0 L 1.328125 -15.4375 L 5.5625 -15.4375 L 5.5625 0 Z M 1.328125 0 "/></g></g></g><g fill="#222222" fill-opacity="1"><g transform="translate(78.554693, 29.997629)"><g><path d="M 0.484375 -7.859375 C 0.484375 -8.796875 0.648438 -9.71875 0.984375 -10.625 C 1.316406 -11.539062 1.804688 -12.363281 2.453125 -13.09375 C 3.097656 -13.820312 3.878906 -14.410156 4.796875 -14.859375 C 5.710938 -15.304688 6.757812 -15.53125 7.9375 -15.53125 C 9.3125 -15.53125 10.515625 -15.222656 11.546875 -14.609375 C 12.578125 -13.992188 13.335938 -13.175781 13.828125 -12.15625 L 10.59375 -9.859375 C 10.457031 -10.234375 10.285156 -10.539062 10.078125 -10.78125 C 9.867188 -11.03125 9.640625 -11.226562 9.390625 -11.375 C 9.148438 -11.519531 8.890625 -11.617188 8.609375 -11.671875 C 8.335938 -11.734375 8.085938 -11.765625 7.859375 -11.765625 C 7.316406 -11.765625 6.851562 -11.644531 6.46875 -11.40625 C 6.082031 -11.164062 5.765625 -10.851562 5.515625 -10.46875 C 5.265625 -10.082031 5.078125 -9.644531 4.953125 -9.15625 C 4.835938 -8.675781 4.78125 -8.195312 4.78125 -7.71875 C 4.78125 -7.1875 4.847656 -6.671875 4.984375 -6.171875 C 5.128906 -5.679688 5.332031 -5.25 5.59375 -4.875 C 5.863281 -4.5 6.191406 -4.195312 6.578125 -3.96875 C 6.960938 -3.738281 7.398438 -3.625 7.890625 -3.625 C 8.140625 -3.625 8.394531 -3.65625 8.65625 -3.71875 C 8.914062 -3.789062 9.164062 -3.898438 9.40625 -4.046875 C 9.644531 -4.203125 9.863281 -4.398438 10.0625 -4.640625 C 10.257812 -4.878906 10.414062 -5.175781 10.53125 -5.53125 L 13.984375 -3.453125 C 13.765625 -2.890625 13.429688 -2.382812 12.984375 -1.9375 C 12.546875 -1.488281 12.046875 -1.109375 11.484375 -0.796875 C 10.921875 -0.492188 10.316406 -0.265625 9.671875 -0.109375 C 9.035156 0.046875 8.414062 0.125 7.8125 0.125 C 6.738281 0.125 5.75 -0.0976562 4.84375 -0.546875 C 3.945312 -1.003906 3.175781 -1.609375 2.53125 -2.359375 C 1.882812 -3.117188 1.378906 -3.976562 1.015625 -4.9375 C 0.660156 -5.894531 0.484375 -6.867188 0.484375 -7.859375 Z M 0.484375 -7.859375 "/></g></g></g><g fill="#222222" fill-opacity="1"><g transform="translate(92.798121, 29.997629)"><g><path d="M 1.328125 0 L 1.328125 -15.4375 L 5.5625 -15.4375 L 5.5625 -9.140625 L 10.703125 -15.4375 L 15.046875 -15.4375 L 9.4375 -8.53125 L 15.4375 0 L 11 0 L 6.9375 -6.15625 L 5.5625 -4.59375 L 5.5625 0 Z M 1.328125 0 "/></g></g></g><g fill="#222222" fill-opacity="1"><g transform="translate(107.780906, 29.997629)"><g/></g></g><g fill="#222222" fill-opacity="1"><g transform="translate(112.679996, 29.997629)"><g><path d="M 13.359375 -11.75 L 8.921875 -11.75 L 8.921875 0 L 4.671875 0 L 4.671875 -11.75 L 0.21875 -11.75 L 0.21875 -15.4375 L 13.359375 -15.4375 Z M 13.359375 -11.75 "/></g></g></g><g fill="#222222" fill-opacity="1"><g transform="translate(126.249307, 29.997629)"><g><path d="M 7.875 0.125 C 6.769531 0.125 5.765625 -0.0976562 4.859375 -0.546875 C 3.953125 -0.992188 3.175781 -1.582031 2.53125 -2.3125 C 1.882812 -3.050781 1.382812 -3.890625 1.03125 -4.828125 C 0.675781 -5.773438 0.5 -6.75 0.5 -7.75 C 0.5 -8.757812 0.679688 -9.734375 1.046875 -10.671875 C 1.421875 -11.617188 1.941406 -12.453125 2.609375 -13.171875 C 3.273438 -13.890625 4.0625 -14.460938 4.96875 -14.890625 C 5.875 -15.316406 6.867188 -15.53125 7.953125 -15.53125 C 9.054688 -15.53125 10.0625 -15.304688 10.96875 -14.859375 C 11.875 -14.410156 12.648438 -13.816406 13.296875 -13.078125 C 13.941406 -12.335938 14.4375 -11.492188 14.78125 -10.546875 C 15.132812 -9.609375 15.3125 -8.644531 15.3125 -7.65625 C 15.3125 -6.644531 15.125 -5.671875 14.75 -4.734375 C 14.382812 -3.796875 13.875 -2.96875 13.21875 -2.25 C 12.570312 -1.53125 11.789062 -0.953125 10.875 -0.515625 C 9.957031 -0.0859375 8.957031 0.125 7.875 0.125 Z M 4.8125 -7.703125 C 4.8125 -7.179688 4.867188 -6.675781 4.984375 -6.1875 C 5.109375 -5.695312 5.300781 -5.265625 5.5625 -4.890625 C 5.820312 -4.515625 6.148438 -4.207031 6.546875 -3.96875 C 6.941406 -3.738281 7.398438 -3.625 7.921875 -3.625 C 8.453125 -3.625 8.910156 -3.742188 9.296875 -3.984375 C 9.691406 -4.222656 10.015625 -4.535156 10.265625 -4.921875 C 10.515625 -5.304688 10.695312 -5.742188 10.8125 -6.234375 C 10.9375 -6.734375 11 -7.238281 11 -7.75 C 11 -8.269531 10.929688 -8.769531 10.796875 -9.25 C 10.671875 -9.738281 10.484375 -10.164062 10.234375 -10.53125 C 9.984375 -10.90625 9.660156 -11.203125 9.265625 -11.421875 C 8.867188 -11.648438 8.410156 -11.765625 7.890625 -11.765625 C 7.359375 -11.765625 6.898438 -11.648438 6.515625 -11.421875 C 6.128906 -11.191406 5.804688 -10.882812 5.546875 -10.5 C 5.296875 -10.113281 5.109375 -9.675781 4.984375 -9.1875 C 4.867188 -8.695312 4.8125 -8.203125 4.8125 -7.703125 Z M 4.8125 -7.703125 "/></g></g></g><g fill="#222222" fill-opacity="1"><g transform="translate(142.058429, 29.997629)"><g/></g></g><g fill="#222222" fill-opacity="1"><g transform="translate(146.951211, 29.997629)"><g><path d="M 13.359375 -11.75 L 8.921875 -11.75 L 8.921875 0 L 4.671875 0 L 4.671875 -11.75 L 0.21875 -11.75 L 0.21875 -15.4375 L 13.359375 -15.4375 Z M 13.359375 -11.75 "/></g></g></g><g fill="#222222" fill-opacity="1"><g transform="translate(160.520522, 29.997629)"><g><path d="M 6.265625 -15.4375 L 10.15625 -15.4375 L 11.5 -10.671875 L 12.875 -15.4375 L 16.765625 -15.4375 L 14.21875 -8.0625 L 15.328125 -4.84375 L 18.65625 -15.4375 L 23.265625 -15.4375 L 17.21875 0 L 13.703125 0 L 11.5 -5.53125 L 9.328125 0 L 5.8125 0 L -0.234375 -15.4375 L 4.34375 -15.4375 L 7.703125 -4.84375 L 8.765625 -8.0625 Z M 6.265625 -15.4375 "/></g></g></g><g fill="#222222" fill-opacity="1"><g transform="translate(183.549214, 29.997629)"><g><path d="M 12.328125 -3.703125 L 12.328125 0 L 1.328125 0 L 1.328125 -15.4375 L 12.140625 -15.4375 L 12.140625 -11.75 L 5.5625 -11.75 L 5.5625 -9.5625 L 11.171875 -9.5625 L 11.171875 -6.140625 L 5.5625 -6.140625 L 5.5625 -3.703125 Z M 12.328125 -3.703125 "/></g></g></g><g fill="#222222" fill-opacity="1"><g transform="translate(196.531395, 29.997629)"><g><path d="M 12.328125 -3.703125 L 12.328125 0 L 1.328125 0 L 1.328125 -15.4375 L 12.140625 -15.4375 L 12.140625 -11.75 L 5.5625 -11.75 L 5.5625 -9.5625 L 11.171875 -9.5625 L 11.171875 -6.140625 L 5.5625 -6.140625 L 5.5625 -3.703125 Z M 12.328125 -3.703125 "/></g></g></g><g fill="#222222" fill-opacity="1"><g transform="translate(209.513575, 29.997629)"><g><path d="M 13.359375 -11.75 L 8.921875 -11.75 L 8.921875 0 L 4.671875 0 L 4.671875 -11.75 L 0.21875 -11.75 L 0.21875 -15.4375 L 13.359375 -15.4375 Z M 13.359375 -11.75 "/></g></g></g><g fill="#222222" fill-opacity="1"><g transform="translate(0, 27.903587)"><g><path d="M 5.21875 0 C 5.757812 0 6.222656 -0.0507812 6.609375 -0.15625 C 7.003906 -0.257812 7.316406 -0.394531 7.546875 -0.5625 C 7.773438 -0.726562 7.953125 -0.941406 8.078125 -1.203125 C 8.210938 -1.460938 8.296875 -1.710938 8.328125 -1.953125 C 8.367188 -2.203125 8.390625 -2.492188 8.390625 -2.828125 C 8.390625 -3.554688 8.253906 -4.144531 7.984375 -4.59375 C 7.710938 -5.039062 7.1875 -5.335938 6.40625 -5.484375 C 6.957031 -5.679688 7.328125 -5.976562 7.515625 -6.375 C 7.710938 -6.769531 7.8125 -7.269531 7.8125 -7.875 C 7.8125 -8.195312 7.789062 -8.472656 7.75 -8.703125 C 7.71875 -8.941406 7.632812 -9.179688 7.5 -9.421875 C 7.375 -9.671875 7.195312 -9.875 6.96875 -10.03125 C 6.738281 -10.195312 6.425781 -10.328125 6.03125 -10.421875 C 5.644531 -10.523438 5.179688 -10.578125 4.640625 -10.578125 L 1.015625 -10.578125 L 1.015625 -9.859375 L 1.890625 -9.859375 L 1.890625 -0.71875 L 1.015625 -0.71875 L 1.015625 0 Z M 2.921875 -0.859375 L 2.921875 -4.96875 L 5.21875 -4.96875 C 6.070312 -4.96875 6.640625 -4.789062 6.921875 -4.4375 C 7.203125 -4.09375 7.34375 -3.578125 7.34375 -2.890625 C 7.34375 -2.222656 7.203125 -1.71875 6.921875 -1.375 C 6.640625 -1.03125 6.070312 -0.859375 5.21875 -0.859375 Z M 2.921875 -5.859375 L 2.921875 -9.734375 L 4.640625 -9.734375 C 5.492188 -9.734375 6.0625 -9.570312 6.34375 -9.25 C 6.625 -8.925781 6.765625 -8.4375 6.765625 -7.78125 C 6.765625 -7.15625 6.625 -6.675781 6.34375 -6.34375 C 6.0625 -6.019531 5.492188 -5.859375 4.640625 -5.859375 Z M 2.921875 -5.859375 "/></g></g></g><g fill="#222222" fill-opacity="1"><g transform="translate(9.115465, 27.903587)"><g><path d="M 4.484375 0.203125 C 5.097656 0.203125 5.613281 0.128906 6.03125 -0.015625 C 6.457031 -0.160156 6.78125 -0.367188 7 -0.640625 C 7.21875 -0.921875 7.375 -1.207031 7.46875 -1.5 C 7.5625 -1.789062 7.628906 -2.144531 7.671875 -2.5625 L 6.828125 -2.609375 C 6.773438 -1.972656 6.582031 -1.488281 6.25 -1.15625 C 5.914062 -0.820312 5.316406 -0.65625 4.453125 -0.65625 C 3.492188 -0.65625 2.851562 -0.898438 2.53125 -1.390625 C 2.207031 -1.890625 2.039062 -2.734375 2.03125 -3.921875 L 7.796875 -3.921875 L 7.796875 -4.140625 C 7.796875 -4.660156 7.773438 -5.101562 7.734375 -5.46875 C 7.703125 -5.84375 7.617188 -6.234375 7.484375 -6.640625 C 7.347656 -7.046875 7.160156 -7.375 6.921875 -7.625 C 6.679688 -7.875 6.351562 -8.082031 5.9375 -8.25 C 5.519531 -8.414062 5.015625 -8.5 4.421875 -8.5 C 3.828125 -8.5 3.316406 -8.414062 2.890625 -8.25 C 2.472656 -8.082031 2.140625 -7.875 1.890625 -7.625 C 1.648438 -7.375 1.460938 -7.046875 1.328125 -6.640625 C 1.191406 -6.234375 1.101562 -5.84375 1.0625 -5.46875 C 1.03125 -5.101562 1.015625 -4.660156 1.015625 -4.140625 C 1.015625 -2.628906 1.253906 -1.523438 1.734375 -0.828125 C 2.210938 -0.140625 3.128906 0.203125 4.484375 0.203125 Z M 4.40625 -7.640625 C 4.894531 -7.640625 5.300781 -7.566406 5.625 -7.421875 C 5.957031 -7.273438 6.195312 -7.054688 6.34375 -6.765625 C 6.5 -6.472656 6.601562 -6.171875 6.65625 -5.859375 C 6.71875 -5.546875 6.753906 -5.164062 6.765625 -4.71875 L 2.03125 -4.71875 C 2.039062 -5.144531 2.078125 -5.515625 2.140625 -5.828125 C 2.203125 -6.140625 2.3125 -6.441406 2.46875 -6.734375 C 2.632812 -7.023438 2.878906 -7.25 3.203125 -7.40625 C 3.523438 -7.5625 3.925781 -7.640625 4.40625 -7.640625 Z M 4.40625 -7.640625 "/></g></g></g><g fill="#222222" fill-opacity="1"><g transform="translate(17.781676, 27.903587)"><g><path d="M 0.5 -7.5625 L 1.8125 -7.5625 L 1.8125 -1.8125 C 1.8125 -1.570312 1.816406 -1.367188 1.828125 -1.203125 C 1.847656 -1.035156 1.882812 -0.851562 1.9375 -0.65625 C 2 -0.46875 2.078125 -0.316406 2.171875 -0.203125 C 2.273438 -0.0859375 2.421875 0.00390625 2.609375 0.078125 C 2.804688 0.160156 3.035156 0.203125 3.296875 0.203125 C 3.640625 0.203125 4.050781 0.132812 4.53125 0 L 4.40625 -0.703125 C 4.070312 -0.628906 3.804688 -0.59375 3.609375 -0.59375 C 3.328125 -0.59375 3.125 -0.679688 3 -0.859375 C 2.882812 -1.046875 2.828125 -1.363281 2.828125 -1.8125 L 2.828125 -7.5625 L 4.34375 -7.5625 L 4.34375 -8.296875 L 2.828125 -8.296875 L 2.828125 -10.15625 L 1.8125 -9.953125 L 1.8125 -8.296875 L 0.5 -8.296875 Z M 0.5 -7.5625 "/></g></g></g><g fill="#222222" fill-opacity="1"><g transform="translate(23.04227, 27.903587)"><g><path d="M 0.5 -7.5625 L 1.8125 -7.5625 L 1.8125 -1.8125 C 1.8125 -1.570312 1.816406 -1.367188 1.828125 -1.203125 C 1.847656 -1.035156 1.882812 -0.851562 1.9375 -0.65625 C 2 -0.46875 2.078125 -0.316406 2.171875 -0.203125 C 2.273438 -0.0859375 2.421875 0.00390625 2.609375 0.078125 C 2.804688 0.160156 3.035156 0.203125 3.296875 0.203125 C 3.640625 0.203125 4.050781 0.132812 4.53125 0 L 4.40625 -0.703125 C 4.070312 -0.628906 3.804688 -0.59375 3.609375 -0.59375 C 3.328125 -0.59375 3.125 -0.679688 3 -0.859375 C 2.882812 -1.046875 2.828125 -1.363281 2.828125 -1.8125 L 2.828125 -7.5625 L 4.34375 -7.5625 L 4.34375 -8.296875 L 2.828125 -8.296875 L 2.828125 -10.15625 L 1.8125 -9.953125 L 1.8125 -8.296875 L 0.5 -8.296875 Z M 0.5 -7.5625 "/></g></g></g><g fill="#222222" fill-opacity="1"><g transform="translate(28.302863, 27.903587)"><g><path d="M 4.484375 0.203125 C 5.097656 0.203125 5.613281 0.128906 6.03125 -0.015625 C 6.457031 -0.160156 6.78125 -0.367188 7 -0.640625 C 7.21875 -0.921875 7.375 -1.207031 7.46875 -1.5 C 7.5625 -1.789062 7.628906 -2.144531 7.671875 -2.5625 L 6.828125 -2.609375 C 6.773438 -1.972656 6.582031 -1.488281 6.25 -1.15625 C 5.914062 -0.820312 5.316406 -0.65625 4.453125 -0.65625 C 3.492188 -0.65625 2.851562 -0.898438 2.53125 -1.390625 C 2.207031 -1.890625 2.039062 -2.734375 2.03125 -3.921875 L 7.796875 -3.921875 L 7.796875 -4.140625 C 7.796875 -4.660156 7.773438 -5.101562 7.734375 -5.46875 C 7.703125 -5.84375 7.617188 -6.234375 7.484375 -6.640625 C 7.347656 -7.046875 7.160156 -7.375 6.921875 -7.625 C 6.679688 -7.875 6.351562 -8.082031 5.9375 -8.25 C 5.519531 -8.414062 5.015625 -8.5 4.421875 -8.5 C 3.828125 -8.5 3.316406 -8.414062 2.890625 -8.25 C 2.472656 -8.082031 2.140625 -7.875 1.890625 -7.625 C 1.648438 -7.375 1.460938 -7.046875 1.328125 -6.640625 C 1.191406 -6.234375 1.101562 -5.84375 1.0625 -5.46875 C 1.03125 -5.101562 1.015625 -4.660156 1.015625 -4.140625 C 1.015625 -2.628906 1.253906 -1.523438 1.734375 -0.828125 C 2.210938 -0.140625 3.128906 0.203125 4.484375 0.203125 Z M 4.40625 -7.640625 C 4.894531 -7.640625 5.300781 -7.566406 5.625 -7.421875 C 5.957031 -7.273438 6.195312 -7.054688 6.34375 -6.765625 C 6.5 -6.472656 6.601562 -6.171875 6.65625 -5.859375 C 6.71875 -5.546875 6.753906 -5.164062 6.765625 -4.71875 L 2.03125 -4.71875 C 2.039062 -5.144531 2.078125 -5.515625 2.140625 -5.828125 C 2.203125 -6.140625 2.3125 -6.441406 2.46875 -6.734375 C 2.632812 -7.023438 2.878906 -7.25 3.203125 -7.40625 C 3.523438 -7.5625 3.925781 -7.640625 4.40625 -7.640625 Z M 4.40625 -7.640625 "/></g></g></g><g fill="#222222" fill-opacity="1"><g transform="translate(36.969075, 27.903587)"><g><path d="M 2.5625 -8.296875 L 1.015625 -8.296875 L 1.015625 -7.5625 L 1.890625 -7.5625 L 1.890625 -0.71875 L 1.015625 -0.71875 L 1.015625 0 L 4.0625 0 L 4.0625 -0.71875 L 2.90625 -0.71875 L 2.90625 -5.640625 C 3.5625 -6.847656 4.570312 -7.476562 5.9375 -7.53125 L 5.9375 -8.5 C 4.582031 -8.445312 3.566406 -7.847656 2.890625 -6.703125 Z M 2.5625 -8.296875 "/></g></g></g></svg>