<svg xmlns="http://www.w3.org/2000/svg" xmlns:xlink="http://www.w3.org/1999/xlink" width="1262" zoomAndPan="magnify" viewBox="0 0 946.5 125.999998" height="168" preserveAspectRatio="xMidYMid meet" version="1.0"><defs><g/><clipPath id="168d406674"><path d="M 224 0.0351562 L 930 0.0351562 L 930 104 L 224 104 Z M 224 0.0351562 " clip-rule="nonzero"/></clipPath><clipPath id="f1a615c53d"><rect x="0" width="706" y="0" height="104"/></clipPath><clipPath id="f302047dce"><path d="M 233 74 L 924 74 L 924 125.964844 L 233 125.964844 Z M 233 74 " clip-rule="nonzero"/></clipPath><clipPath id="9efa807516"><rect x="0" width="691" y="0" height="52"/></clipPath><clipPath id="ecfc29abe0"><path d="M 0 0.0351562 L 212 0.0351562 L 212 107 L 0 107 Z M 0 0.0351562 " clip-rule="nonzero"/></clipPath><clipPath id="4792c410af"><rect x="0" width="212" y="0" height="107"/></clipPath></defs><g clip-path="url(#168d406674)"><g transform="matrix(1, 0, 0, 1, 224, -0.000000000000008771)"><g clip-path="url(#f1a615c53d)"><g fill="#000000" fill-opacity="1"><g transform="translate(0.457829, 81.462031)"><g><path d="M 1.921875 -31.625 C 1.921875 -35.425781 2.59375 -39.164062 3.9375 -42.84375 C 5.28125 -46.53125 7.25 -49.832031 9.84375 -52.75 C 12.445312 -55.664062 15.601562 -58.03125 19.3125 -59.84375 C 23.03125 -61.65625 27.253906 -62.5625 31.984375 -62.5625 C 37.535156 -62.5625 42.382812 -61.316406 46.53125 -58.828125 C 50.675781 -56.347656 53.742188 -53.066406 55.734375 -48.984375 L 42.671875 -39.6875 C 42.148438 -41.207031 41.460938 -42.460938 40.609375 -43.453125 C 39.765625 -44.453125 38.84375 -45.242188 37.84375 -45.828125 C 36.851562 -46.410156 35.800781 -46.816406 34.6875 -47.046875 C 33.582031 -47.285156 32.5625 -47.40625 31.625 -47.40625 C 29.46875 -47.40625 27.613281 -46.921875 26.0625 -45.953125 C 24.519531 -44.992188 23.234375 -43.738281 22.203125 -42.1875 C 21.179688 -40.644531 20.4375 -38.894531 19.96875 -36.9375 C 19.507812 -34.976562 19.28125 -33.035156 19.28125 -31.109375 C 19.28125 -28.941406 19.554688 -26.863281 20.109375 -24.875 C 20.660156 -22.894531 21.476562 -21.144531 22.5625 -19.625 C 23.644531 -18.101562 24.957031 -16.890625 26.5 -15.984375 C 28.050781 -15.085938 29.820312 -14.640625 31.8125 -14.640625 C 32.800781 -14.640625 33.820312 -14.769531 34.875 -15.03125 C 35.925781 -15.289062 36.929688 -15.726562 37.890625 -16.34375 C 38.859375 -16.957031 39.734375 -17.742188 40.515625 -18.703125 C 41.304688 -19.671875 41.9375 -20.851562 42.40625 -22.25 L 56.34375 -13.9375 C 55.46875 -11.65625 54.140625 -9.609375 52.359375 -7.796875 C 50.578125 -5.984375 48.546875 -4.460938 46.265625 -3.234375 C 43.984375 -2.015625 41.554688 -1.082031 38.984375 -0.4375 C 36.421875 0.207031 33.910156 0.53125 31.453125 0.53125 C 27.128906 0.53125 23.15625 -0.390625 19.53125 -2.234375 C 15.914062 -4.078125 12.804688 -6.515625 10.203125 -9.546875 C 7.609375 -12.585938 5.578125 -16.035156 4.109375 -19.890625 C 2.648438 -23.742188 1.921875 -27.65625 1.921875 -31.625 Z M 1.921875 -31.625 "/></g></g></g><g fill="#000000" fill-opacity="1"><g transform="translate(57.846228, 81.462031)"><g><path d="M 5.34375 0 L 5.34375 -62.21875 L 22.4375 -62.21875 L 22.4375 -14.890625 L 50.640625 -14.890625 L 50.640625 0 Z M 5.34375 0 "/></g></g></g><g fill="#000000" fill-opacity="1"><g transform="translate(109.364377, 81.462031)"><g><path d="M 5.34375 0 L 5.34375 -62.21875 L 22.4375 -62.21875 L 22.4375 0 Z M 5.34375 0 "/></g></g></g><g fill="#000000" fill-opacity="1"><g transform="translate(137.138603, 81.462031)"><g><path d="M 1.921875 -31.625 C 1.921875 -35.425781 2.59375 -39.164062 3.9375 -42.84375 C 5.28125 -46.53125 7.25 -49.832031 9.84375 -52.75 C 12.445312 -55.664062 15.601562 -58.03125 19.3125 -59.84375 C 23.03125 -61.65625 27.253906 -62.5625 31.984375 -62.5625 C 37.535156 -62.5625 42.382812 -61.316406 46.53125 -58.828125 C 50.675781 -56.347656 53.742188 -53.066406 55.734375 -48.984375 L 42.671875 -39.6875 C 42.148438 -41.207031 41.460938 -42.460938 40.609375 -43.453125 C 39.765625 -44.453125 38.84375 -45.242188 37.84375 -45.828125 C 36.851562 -46.410156 35.800781 -46.816406 34.6875 -47.046875 C 33.582031 -47.285156 32.5625 -47.40625 31.625 -47.40625 C 29.46875 -47.40625 27.613281 -46.921875 26.0625 -45.953125 C 24.519531 -44.992188 23.234375 -43.738281 22.203125 -42.1875 C 21.179688 -40.644531 20.4375 -38.894531 19.96875 -36.9375 C 19.507812 -34.976562 19.28125 -33.035156 19.28125 -31.109375 C 19.28125 -28.941406 19.554688 -26.863281 20.109375 -24.875 C 20.660156 -22.894531 21.476562 -21.144531 22.5625 -19.625 C 23.644531 -18.101562 24.957031 -16.890625 26.5 -15.984375 C 28.050781 -15.085938 29.820312 -14.640625 31.8125 -14.640625 C 32.800781 -14.640625 33.820312 -14.769531 34.875 -15.03125 C 35.925781 -15.289062 36.929688 -15.726562 37.890625 -16.34375 C 38.859375 -16.957031 39.734375 -17.742188 40.515625 -18.703125 C 41.304688 -19.671875 41.9375 -20.851562 42.40625 -22.25 L 56.34375 -13.9375 C 55.46875 -11.65625 54.140625 -9.609375 52.359375 -7.796875 C 50.578125 -5.984375 48.546875 -4.460938 46.265625 -3.234375 C 43.984375 -2.015625 41.554688 -1.082031 38.984375 -0.4375 C 36.421875 0.207031 33.910156 0.53125 31.453125 0.53125 C 27.128906 0.53125 23.15625 -0.390625 19.53125 -2.234375 C 15.914062 -4.078125 12.804688 -6.515625 10.203125 -9.546875 C 7.609375 -12.585938 5.578125 -16.035156 4.109375 -19.890625 C 2.648438 -23.742188 1.921875 -27.65625 1.921875 -31.625 Z M 1.921875 -31.625 "/></g></g></g><g fill="#000000" fill-opacity="1"><g transform="translate(194.527002, 81.462031)"><g><path d="M 5.34375 0 L 5.34375 -62.21875 L 22.4375 -62.21875 L 22.4375 -36.796875 L 43.109375 -62.21875 L 60.640625 -62.21875 L 38.03125 -34.34375 L 62.21875 0 L 44.34375 0 L 27.953125 -24.796875 L 22.4375 -18.484375 L 22.4375 0 Z M 5.34375 0 "/></g></g></g><g fill="#000000" fill-opacity="1"><g transform="translate(254.89435, 81.462031)"><g/></g></g><g fill="#000000" fill-opacity="1"><g transform="translate(274.607922, 81.462031)"><g><path d="M 53.796875 -47.3125 L 35.921875 -47.3125 L 35.921875 0 L 18.84375 0 L 18.84375 -47.3125 L 0.875 -47.3125 L 0.875 -62.21875 L 53.796875 -62.21875 Z M 53.796875 -47.3125 "/></g></g></g><g fill="#000000" fill-opacity="1"><g transform="translate(329.280228, 81.462031)"><g><path d="M 31.71875 0.53125 C 27.28125 0.53125 23.234375 -0.375 19.578125 -2.1875 C 15.929688 -4 12.804688 -6.378906 10.203125 -9.328125 C 7.609375 -12.273438 5.59375 -15.644531 4.15625 -19.4375 C 2.726562 -23.238281 2.015625 -27.15625 2.015625 -31.1875 C 2.015625 -35.28125 2.757812 -39.222656 4.25 -43.015625 C 5.738281 -46.816406 7.828125 -50.160156 10.515625 -53.046875 C 13.203125 -55.941406 16.367188 -58.25 20.015625 -59.96875 C 23.671875 -61.695312 27.691406 -62.5625 32.078125 -62.5625 C 36.515625 -62.5625 40.554688 -61.65625 44.203125 -59.84375 C 47.859375 -58.03125 50.984375 -55.632812 53.578125 -52.65625 C 56.179688 -49.675781 58.179688 -46.285156 59.578125 -42.484375 C 60.984375 -38.691406 61.6875 -34.8125 61.6875 -30.84375 C 61.6875 -26.75 60.941406 -22.816406 59.453125 -19.046875 C 57.960938 -15.285156 55.898438 -11.957031 53.265625 -9.0625 C 50.640625 -6.175781 47.488281 -3.851562 43.8125 -2.09375 C 40.132812 -0.34375 36.101562 0.53125 31.71875 0.53125 Z M 19.359375 -31.015625 C 19.359375 -28.910156 19.609375 -26.878906 20.109375 -24.921875 C 20.609375 -22.972656 21.382812 -21.238281 22.4375 -19.71875 C 23.488281 -18.195312 24.800781 -16.96875 26.375 -16.03125 C 27.945312 -15.101562 29.785156 -14.640625 31.890625 -14.640625 C 34.054688 -14.640625 35.925781 -15.117188 37.5 -16.078125 C 39.082031 -17.046875 40.367188 -18.300781 41.359375 -19.84375 C 42.347656 -21.394531 43.09375 -23.160156 43.59375 -25.140625 C 44.09375 -27.128906 44.34375 -29.144531 44.34375 -31.1875 C 44.34375 -33.289062 44.078125 -35.320312 43.546875 -37.28125 C 43.023438 -39.238281 42.25 -40.960938 41.21875 -42.453125 C 40.195312 -43.941406 38.898438 -45.140625 37.328125 -46.046875 C 35.753906 -46.953125 33.914062 -47.40625 31.8125 -47.40625 C 29.644531 -47.40625 27.785156 -46.9375 26.234375 -46 C 24.691406 -45.0625 23.410156 -43.816406 22.390625 -42.265625 C 21.367188 -40.722656 20.609375 -38.972656 20.109375 -37.015625 C 19.609375 -35.066406 19.359375 -33.066406 19.359375 -31.015625 Z M 19.359375 -31.015625 "/></g></g></g><g fill="#000000" fill-opacity="1"><g transform="translate(392.976985, 81.462031)"><g/></g></g><g fill="#000000" fill-opacity="1"><g transform="translate(412.690534, 81.462031)"><g><path d="M 43.03125 -41.890625 C 41.269531 -42.941406 39.457031 -43.875 37.59375 -44.6875 C 36.007812 -45.382812 34.238281 -46.039062 32.28125 -46.65625 C 30.332031 -47.269531 28.421875 -47.578125 26.546875 -47.578125 C 25.023438 -47.578125 23.8125 -47.34375 22.90625 -46.875 C 22.007812 -46.40625 21.5625 -45.617188 21.5625 -44.515625 C 21.5625 -43.691406 21.820312 -43.015625 22.34375 -42.484375 C 22.875 -41.960938 23.632812 -41.484375 24.625 -41.046875 C 25.613281 -40.609375 26.820312 -40.1875 28.25 -39.78125 C 29.6875 -39.375 31.3125 -38.878906 33.125 -38.296875 C 35.988281 -37.421875 38.570312 -36.457031 40.875 -35.40625 C 43.1875 -34.351562 45.160156 -33.109375 46.796875 -31.671875 C 48.429688 -30.242188 49.6875 -28.503906 50.5625 -26.453125 C 51.4375 -24.410156 51.875 -21.929688 51.875 -19.015625 C 51.875 -15.273438 51.1875 -12.132812 49.8125 -9.59375 C 48.4375 -7.050781 46.625 -5.019531 44.375 -3.5 C 42.132812 -1.988281 39.597656 -0.894531 36.765625 -0.21875 C 33.929688 0.445312 31.082031 0.78125 28.21875 0.78125 C 25.9375 0.78125 23.597656 0.601562 21.203125 0.25 C 18.804688 -0.09375 16.425781 -0.582031 14.0625 -1.21875 C 11.695312 -1.863281 9.414062 -2.625 7.21875 -3.5 C 5.03125 -4.375 3.003906 -5.367188 1.140625 -6.484375 L 8.5 -21.46875 C 10.539062 -20.1875 12.671875 -19.046875 14.890625 -18.046875 C 16.765625 -17.171875 18.882812 -16.382812 21.25 -15.6875 C 23.613281 -14.988281 26.023438 -14.640625 28.484375 -14.640625 C 30.347656 -14.640625 31.644531 -14.882812 32.375 -15.375 C 33.101562 -15.875 33.46875 -16.53125 33.46875 -17.34375 C 33.46875 -18.226562 33.101562 -18.972656 32.375 -19.578125 C 31.644531 -20.191406 30.632812 -20.734375 29.34375 -21.203125 C 28.0625 -21.671875 26.585938 -22.140625 24.921875 -22.609375 C 23.265625 -23.078125 21.5 -23.628906 19.625 -24.265625 C 16.882812 -25.203125 14.519531 -26.210938 12.53125 -27.296875 C 10.539062 -28.378906 8.90625 -29.601562 7.625 -30.96875 C 6.34375 -32.34375 5.394531 -33.90625 4.78125 -35.65625 C 4.164062 -37.414062 3.859375 -39.429688 3.859375 -41.703125 C 3.859375 -45.148438 4.484375 -48.1875 5.734375 -50.8125 C 6.992188 -53.445312 8.703125 -55.640625 10.859375 -57.390625 C 13.023438 -59.140625 15.492188 -60.46875 18.265625 -61.375 C 21.046875 -62.28125 23.984375 -62.734375 27.078125 -62.734375 C 29.359375 -62.734375 31.578125 -62.515625 33.734375 -62.078125 C 35.898438 -61.640625 37.988281 -61.082031 40 -60.40625 C 42.019531 -59.738281 43.90625 -59.007812 45.65625 -58.21875 C 47.40625 -57.4375 48.984375 -56.695312 50.390625 -56 Z M 43.03125 -41.890625 "/></g></g></g><g fill="#000000" fill-opacity="1"><g transform="translate(466.749548, 81.462031)"><g><path d="M 60.375 -62.21875 L 60.375 0 L 43.28125 0 L 43.28125 -24.359375 L 22.4375 -24.359375 L 22.4375 0 L 5.34375 0 L 5.34375 -62.21875 L 22.4375 -62.21875 L 22.4375 -39.25 L 43.28125 -39.25 L 43.28125 -62.21875 Z M 60.375 -62.21875 "/></g></g></g><g fill="#000000" fill-opacity="1"><g transform="translate(532.461457, 81.462031)"><g><path d="M -0.703125 0 L 22.515625 -62.21875 L 36.359375 -62.21875 L 59.5 0 L 41.453125 0 L 37.671875 -12.1875 L 21.125 -12.1875 L 17.4375 0 Z M 29.4375 -44.421875 L 23.65625 -23.578125 L 34.96875 -23.578125 Z M 29.4375 -44.421875 "/></g></g></g><g fill="#000000" fill-opacity="1"><g transform="translate(591.25174, 81.462031)"><g><path d="M 5.34375 0 L 5.34375 -62.21875 L 33.90625 -62.21875 C 36.945312 -62.21875 39.75 -61.585938 42.3125 -60.328125 C 44.882812 -59.078125 47.09375 -57.441406 48.9375 -55.421875 C 50.78125 -53.410156 52.226562 -51.101562 53.28125 -48.5 C 54.332031 -45.894531 54.859375 -43.28125 54.859375 -40.65625 C 54.859375 -37.03125 54.066406 -33.65625 52.484375 -30.53125 C 50.910156 -27.40625 48.722656 -24.851562 45.921875 -22.875 L 59.9375 0 L 40.65625 0 L 28.828125 -19.109375 L 22.4375 -19.109375 L 22.4375 0 Z M 22.4375 -34 L 33.203125 -34 C 34.253906 -34 35.234375 -34.582031 36.140625 -35.75 C 37.046875 -36.914062 37.5 -38.550781 37.5 -40.65625 C 37.5 -42.820312 36.972656 -44.472656 35.921875 -45.609375 C 34.867188 -46.742188 33.816406 -47.3125 32.765625 -47.3125 L 22.4375 -47.3125 Z M 22.4375 -34 "/></g></g></g><g fill="#000000" fill-opacity="1"><g transform="translate(651.356208, 81.462031)"><g><path d="M 49.6875 -14.890625 L 49.6875 0 L 5.34375 0 L 5.34375 -62.21875 L 48.890625 -62.21875 L 48.890625 -47.3125 L 22.4375 -47.3125 L 22.4375 -38.5625 L 45.046875 -38.5625 L 45.046875 -24.703125 L 22.4375 -24.703125 L 22.4375 -14.890625 Z M 49.6875 -14.890625 "/></g></g></g></g></g></g><g clip-path="url(#f302047dce)"><g transform="matrix(1, 0, 0, 1, 233, 74)"><g clip-path="url(#9efa807516)"><g fill="#222222" fill-opacity="1"><g transform="translate(1.104588, 40.685093)"><g><path d="M 6.171875 0 L 13.25 0 L 13.25 -1.671875 L 10.90625 -1.671875 L 10.90625 -8.515625 L 17.625 -22.6875 L 19.09375 -22.6875 L 19.09375 -24.359375 L 13.34375 -24.359375 L 13.34375 -22.6875 L 15.1875 -22.6875 L 9.71875 -10.875 L 4.234375 -22.6875 L 6.078125 -22.6875 L 6.078125 -24.359375 L 0.328125 -24.359375 L 0.328125 -22.6875 L 1.765625 -22.6875 L 8.515625 -8.515625 L 8.515625 -1.671875 L 6.171875 -1.671875 Z M 6.171875 0 "/></g></g></g><g fill="#222222" fill-opacity="1"><g transform="translate(20.520188, 40.685093)"><g><path d="M 10.140625 -1.5 C 9.078125 -1.5 8.171875 -1.660156 7.421875 -1.984375 C 6.679688 -2.304688 6.113281 -2.695312 5.71875 -3.15625 C 5.332031 -3.613281 5.023438 -4.234375 4.796875 -5.015625 C 4.578125 -5.804688 4.445312 -6.519531 4.40625 -7.15625 C 4.363281 -7.789062 4.34375 -8.585938 4.34375 -9.546875 C 4.34375 -10.503906 4.363281 -11.296875 4.40625 -11.921875 C 4.445312 -12.554688 4.578125 -13.269531 4.796875 -14.0625 C 5.023438 -14.851562 5.332031 -15.476562 5.71875 -15.9375 C 6.113281 -16.394531 6.679688 -16.785156 7.421875 -17.109375 C 8.171875 -17.429688 9.078125 -17.59375 10.140625 -17.59375 C 11.210938 -17.59375 12.117188 -17.429688 12.859375 -17.109375 C 13.609375 -16.785156 14.175781 -16.394531 14.5625 -15.9375 C 14.957031 -15.476562 15.265625 -14.851562 15.484375 -14.0625 C 15.703125 -13.269531 15.832031 -12.554688 15.875 -11.921875 C 15.925781 -11.296875 15.953125 -10.503906 15.953125 -9.546875 C 15.953125 -8.585938 15.925781 -7.789062 15.875 -7.15625 C 15.832031 -6.519531 15.703125 -5.804688 15.484375 -5.015625 C 15.265625 -4.234375 14.957031 -3.613281 14.5625 -3.15625 C 14.175781 -2.695312 13.609375 -2.304688 12.859375 -1.984375 C 12.117188 -1.660156 11.210938 -1.5 10.140625 -1.5 Z M 10.140625 0.46875 C 11.171875 0.46875 12.09375 0.363281 12.90625 0.15625 C 13.71875 -0.0390625 14.40625 -0.296875 14.96875 -0.609375 C 15.53125 -0.929688 16.015625 -1.347656 16.421875 -1.859375 C 16.835938 -2.378906 17.160156 -2.90625 17.390625 -3.4375 C 17.628906 -3.96875 17.816406 -4.59375 17.953125 -5.3125 C 18.085938 -6.039062 18.175781 -6.722656 18.21875 -7.359375 C 18.269531 -7.992188 18.296875 -8.722656 18.296875 -9.546875 C 18.296875 -10.367188 18.269531 -11.097656 18.21875 -11.734375 C 18.175781 -12.367188 18.085938 -13.046875 17.953125 -13.765625 C 17.816406 -14.492188 17.628906 -15.125 17.390625 -15.65625 C 17.160156 -16.1875 16.835938 -16.707031 16.421875 -17.21875 C 16.015625 -17.726562 15.53125 -18.144531 14.96875 -18.46875 C 14.40625 -18.789062 13.71875 -19.050781 12.90625 -19.25 C 12.09375 -19.457031 11.171875 -19.5625 10.140625 -19.5625 C 9.117188 -19.5625 8.203125 -19.457031 7.390625 -19.25 C 6.578125 -19.050781 5.882812 -18.789062 5.3125 -18.46875 C 4.75 -18.144531 4.257812 -17.726562 3.84375 -17.21875 C 3.4375 -16.707031 3.113281 -16.1875 2.875 -15.65625 C 2.644531 -15.125 2.460938 -14.492188 2.328125 -13.765625 C 2.203125 -13.046875 2.113281 -12.367188 2.0625 -11.734375 C 2.019531 -11.097656 2 -10.367188 2 -9.546875 C 2 -8.722656 2.019531 -7.992188 2.0625 -7.359375 C 2.113281 -6.722656 2.203125 -6.039062 2.328125 -5.3125 C 2.460938 -4.59375 2.644531 -3.96875 2.875 -3.4375 C 3.113281 -2.90625 3.4375 -2.378906 3.84375 -1.859375 C 4.257812 -1.347656 4.75 -0.929688 5.3125 -0.609375 C 5.882812 -0.296875 6.578125 -0.0390625 7.390625 0.15625 C 8.203125 0.363281 9.117188 0.46875 10.140625 0.46875 Z M 10.140625 0.46875 "/></g></g></g><g fill="#222222" fill-opacity="1"><g transform="translate(40.803155, 40.685093)"><g><path d="M 4 -19.09375 L 2 -19.09375 L 2 -17.421875 L 4 -17.421875 L 4 -5.4375 C 4 -3.375 4.414062 -1.875 5.25 -0.9375 C 6.09375 0 7.554688 0.46875 9.640625 0.46875 C 12.203125 0.46875 14.648438 -0.5 16.984375 -2.4375 L 17.65625 0 L 21.21875 0 L 21.21875 -1.671875 L 19.21875 -1.671875 L 19.21875 -19.09375 L 14.890625 -19.09375 L 14.890625 -17.421875 L 16.890625 -17.421875 L 16.890625 -4.40625 C 14.773438 -2.46875 12.523438 -1.5 10.140625 -1.5 C 8.742188 -1.5 7.757812 -1.804688 7.1875 -2.421875 C 6.625 -3.035156 6.34375 -4.050781 6.34375 -5.46875 L 6.34375 -19.09375 Z M 4 -19.09375 "/></g></g></g><g fill="#222222" fill-opacity="1"><g transform="translate(64.021793, 40.685093)"><g><path d="M 5.90625 -19.09375 L 2.34375 -19.09375 L 2.34375 -17.421875 L 4.34375 -17.421875 L 4.34375 -1.671875 L 2.34375 -1.671875 L 2.34375 0 L 9.34375 0 L 9.34375 -1.671875 L 6.671875 -1.671875 L 6.671875 -12.984375 C 8.179688 -15.765625 10.507812 -17.210938 13.65625 -17.328125 L 13.65625 -19.5625 C 10.539062 -19.445312 8.203125 -18.066406 6.640625 -15.421875 Z M 5.90625 -19.09375 "/></g></g></g><g fill="#222222" fill-opacity="1"><g transform="translate(87.507321, 40.685093)"><g><path d="M 5.90625 -19.09375 L 2.34375 -19.09375 L 2.34375 -17.421875 L 4.34375 -17.421875 L 4.34375 -1.671875 L 2.34375 -1.671875 L 2.34375 0 L 9.34375 0 L 9.34375 -1.671875 L 6.671875 -1.671875 L 6.671875 -12.984375 C 8.179688 -15.765625 10.507812 -17.210938 13.65625 -17.328125 L 13.65625 -19.5625 C 10.539062 -19.445312 8.203125 -18.066406 6.640625 -15.421875 Z M 5.90625 -19.09375 "/></g></g></g><g fill="#222222" fill-opacity="1"><g transform="translate(101.485205, 40.685093)"><g><path d="M 10.3125 0.46875 C 11.738281 0.46875 12.9375 0.300781 13.90625 -0.03125 C 14.875 -0.363281 15.609375 -0.847656 16.109375 -1.484375 C 16.609375 -2.117188 16.96875 -2.773438 17.1875 -3.453125 C 17.40625 -4.128906 17.5625 -4.945312 17.65625 -5.90625 L 15.71875 -6 C 15.582031 -4.539062 15.132812 -3.425781 14.375 -2.65625 C 13.625 -1.882812 12.25 -1.5 10.25 -1.5 C 8.039062 -1.5 6.5625 -2.070312 5.8125 -3.21875 C 5.070312 -4.363281 4.691406 -6.296875 4.671875 -9.015625 L 17.953125 -9.015625 L 17.953125 -9.546875 C 17.953125 -10.722656 17.90625 -11.738281 17.8125 -12.59375 C 17.726562 -13.457031 17.53125 -14.351562 17.21875 -15.28125 C 16.90625 -16.21875 16.476562 -16.972656 15.9375 -17.546875 C 15.394531 -18.128906 14.640625 -18.609375 13.671875 -18.984375 C 12.703125 -19.367188 11.535156 -19.5625 10.171875 -19.5625 C 8.816406 -19.5625 7.648438 -19.367188 6.671875 -18.984375 C 5.691406 -18.609375 4.921875 -18.128906 4.359375 -17.546875 C 3.804688 -16.972656 3.375 -16.21875 3.0625 -15.28125 C 2.757812 -14.351562 2.5625 -13.457031 2.46875 -12.59375 C 2.382812 -11.738281 2.34375 -10.722656 2.34375 -9.546875 C 2.34375 -6.054688 2.890625 -3.515625 3.984375 -1.921875 C 5.085938 -0.328125 7.195312 0.46875 10.3125 0.46875 Z M 10.140625 -17.59375 C 11.273438 -17.59375 12.210938 -17.425781 12.953125 -17.09375 C 13.703125 -16.757812 14.253906 -16.25 14.609375 -15.5625 C 14.972656 -14.882812 15.21875 -14.191406 15.34375 -13.484375 C 15.476562 -12.773438 15.5625 -11.894531 15.59375 -10.84375 L 4.671875 -10.84375 C 4.691406 -11.84375 4.773438 -12.695312 4.921875 -13.40625 C 5.066406 -14.125 5.320312 -14.820312 5.6875 -15.5 C 6.050781 -16.175781 6.609375 -16.691406 7.359375 -17.046875 C 8.109375 -17.410156 9.035156 -17.59375 10.140625 -17.59375 Z M 10.140625 -17.59375 "/></g></g></g><g fill="#222222" fill-opacity="1"><g transform="translate(121.43456, 40.685093)"><g><path d="M 14.859375 0 L 18.421875 0 L 18.421875 -1.671875 L 16.421875 -1.671875 L 16.421875 -14.21875 C 16.421875 -17.78125 14.21875 -19.5625 9.8125 -19.5625 C 8.476562 -19.5625 7.363281 -19.425781 6.46875 -19.15625 C 5.582031 -18.882812 4.898438 -18.460938 4.421875 -17.890625 C 3.941406 -17.328125 3.597656 -16.722656 3.390625 -16.078125 C 3.179688 -15.441406 3.039062 -14.644531 2.96875 -13.6875 L 4.9375 -13.578125 C 5.03125 -14.960938 5.390625 -15.976562 6.015625 -16.625 C 6.648438 -17.269531 7.914062 -17.59375 9.8125 -17.59375 C 12.65625 -17.59375 14.078125 -16.46875 14.078125 -14.21875 L 14.078125 -10.875 L 7.90625 -10.484375 C 5.65625 -10.328125 4.128906 -9.820312 3.328125 -8.96875 C 2.535156 -8.125 2.140625 -6.75 2.140625 -4.84375 C 2.140625 -3.082031 2.554688 -1.753906 3.390625 -0.859375 C 4.222656 0.0234375 5.6875 0.46875 7.78125 0.46875 C 10.132812 0.46875 12.289062 -0.410156 14.25 -2.171875 Z M 8.109375 -1.4375 C 6.753906 -1.4375 5.796875 -1.707031 5.234375 -2.25 C 4.679688 -2.800781 4.40625 -3.628906 4.40625 -4.734375 C 4.40625 -6.253906 4.65625 -7.273438 5.15625 -7.796875 C 5.65625 -8.316406 6.617188 -8.617188 8.046875 -8.703125 L 14.078125 -9.078125 L 14.078125 -4.03125 C 12.253906 -2.300781 10.265625 -1.4375 8.109375 -1.4375 Z M 8.109375 -1.4375 "/></g></g></g><g fill="#222222" fill-opacity="1"><g transform="translate(141.850949, 40.685093)"><g><path d="M 15.65625 0 L 19.21875 0 L 19.21875 -1.671875 L 17.21875 -1.671875 L 17.21875 -25.03125 L 12.875 -25.03125 L 12.875 -23.359375 L 14.890625 -23.359375 L 14.890625 -18.359375 C 12.972656 -19.160156 11.125 -19.5625 9.34375 -19.5625 C 8.070312 -19.5625 6.972656 -19.367188 6.046875 -18.984375 C 5.128906 -18.609375 4.414062 -18.128906 3.90625 -17.546875 C 3.394531 -16.972656 2.988281 -16.21875 2.6875 -15.28125 C 2.382812 -14.351562 2.191406 -13.457031 2.109375 -12.59375 C 2.035156 -11.738281 2 -10.722656 2 -9.546875 C 2 -8.367188 2.035156 -7.347656 2.109375 -6.484375 C 2.191406 -5.628906 2.378906 -4.734375 2.671875 -3.796875 C 2.960938 -2.867188 3.359375 -2.113281 3.859375 -1.53125 C 4.359375 -0.957031 5.054688 -0.476562 5.953125 -0.09375 C 6.859375 0.28125 7.929688 0.46875 9.171875 0.46875 C 11.335938 0.46875 13.351562 -0.351562 15.21875 -2 Z M 9.578125 -1.5 C 7.503906 -1.5 6.113281 -2.175781 5.40625 -3.53125 C 4.695312 -4.894531 4.34375 -6.898438 4.34375 -9.546875 C 4.34375 -10.816406 4.410156 -11.894531 4.546875 -12.78125 C 4.691406 -13.675781 4.945312 -14.503906 5.3125 -15.265625 C 5.6875 -16.035156 6.234375 -16.613281 6.953125 -17 C 7.679688 -17.394531 8.585938 -17.59375 9.671875 -17.59375 C 11.523438 -17.59375 13.265625 -17.210938 14.890625 -16.453125 L 14.890625 -3.734375 C 13.265625 -2.242188 11.492188 -1.5 9.578125 -1.5 Z M 9.578125 -1.5 "/></g></g></g><g fill="#222222" fill-opacity="1"><g transform="translate(163.067984, 40.685093)"><g><path d="M 10.3125 0.46875 C 11.738281 0.46875 12.9375 0.300781 13.90625 -0.03125 C 14.875 -0.363281 15.609375 -0.847656 16.109375 -1.484375 C 16.609375 -2.117188 16.96875 -2.773438 17.1875 -3.453125 C 17.40625 -4.128906 17.5625 -4.945312 17.65625 -5.90625 L 15.71875 -6 C 15.582031 -4.539062 15.132812 -3.425781 14.375 -2.65625 C 13.625 -1.882812 12.25 -1.5 10.25 -1.5 C 8.039062 -1.5 6.5625 -2.070312 5.8125 -3.21875 C 5.070312 -4.363281 4.691406 -6.296875 4.671875 -9.015625 L 17.953125 -9.015625 L 17.953125 -9.546875 C 17.953125 -10.722656 17.90625 -11.738281 17.8125 -12.59375 C 17.726562 -13.457031 17.53125 -14.351562 17.21875 -15.28125 C 16.90625 -16.21875 16.476562 -16.972656 15.9375 -17.546875 C 15.394531 -18.128906 14.640625 -18.609375 13.671875 -18.984375 C 12.703125 -19.367188 11.535156 -19.5625 10.171875 -19.5625 C 8.816406 -19.5625 7.648438 -19.367188 6.671875 -18.984375 C 5.691406 -18.609375 4.921875 -18.128906 4.359375 -17.546875 C 3.804688 -16.972656 3.375 -16.21875 3.0625 -15.28125 C 2.757812 -14.351562 2.5625 -13.457031 2.46875 -12.59375 C 2.382812 -11.738281 2.34375 -10.722656 2.34375 -9.546875 C 2.34375 -6.054688 2.890625 -3.515625 3.984375 -1.921875 C 5.085938 -0.328125 7.195312 0.46875 10.3125 0.46875 Z M 10.140625 -17.59375 C 11.273438 -17.59375 12.210938 -17.425781 12.953125 -17.09375 C 13.703125 -16.757812 14.253906 -16.25 14.609375 -15.5625 C 14.972656 -14.882812 15.21875 -14.191406 15.34375 -13.484375 C 15.476562 -12.773438 15.5625 -11.894531 15.59375 -10.84375 L 4.671875 -10.84375 C 4.691406 -11.84375 4.773438 -12.695312 4.921875 -13.40625 C 5.066406 -14.125 5.320312 -14.820312 5.6875 -15.5 C 6.050781 -16.175781 6.609375 -16.691406 7.359375 -17.046875 C 8.109375 -17.410156 9.035156 -17.59375 10.140625 -17.59375 Z M 10.140625 -17.59375 "/></g></g></g><g fill="#222222" fill-opacity="1"><g transform="translate(183.017339, 40.685093)"><g><path d="M 5.90625 -19.09375 L 2.34375 -19.09375 L 2.34375 -17.421875 L 4.34375 -17.421875 L 4.34375 -1.671875 L 2.34375 -1.671875 L 2.34375 0 L 9.34375 0 L 9.34375 -1.671875 L 6.671875 -1.671875 L 6.671875 -12.984375 C 8.179688 -15.765625 10.507812 -17.210938 13.65625 -17.328125 L 13.65625 -19.5625 C 10.539062 -19.445312 8.203125 -18.066406 6.640625 -15.421875 Z M 5.90625 -19.09375 "/></g></g></g><g fill="#222222" fill-opacity="1"><g transform="translate(196.995223, 40.685093)"><g><path d="M 14.1875 -19.09375 L 14.21875 -17.15625 C 13.195312 -18.757812 11.359375 -19.5625 8.703125 -19.5625 C 6.640625 -19.5625 5.078125 -19.078125 4.015625 -18.109375 C 2.960938 -17.140625 2.4375 -15.863281 2.4375 -14.28125 C 2.4375 -12.613281 2.878906 -11.40625 3.765625 -10.65625 C 4.660156 -9.914062 6.140625 -9.28125 8.203125 -8.75 L 10.8125 -8.046875 C 12.101562 -7.710938 13.003906 -7.300781 13.515625 -6.8125 C 14.023438 -6.320312 14.28125 -5.675781 14.28125 -4.875 C 14.28125 -2.625 12.769531 -1.5 9.75 -1.5 C 6.320312 -1.5 4.414062 -3.242188 4.03125 -6.734375 L 2.5 -6.734375 L 2.5 0 L 4.203125 0 L 4.140625 -2.46875 C 5.296875 -0.507812 7.265625 0.46875 10.046875 0.46875 C 14.429688 0.46875 16.625 -1.3125 16.625 -4.875 C 16.625 -6.457031 16.179688 -7.617188 15.296875 -8.359375 C 14.421875 -9.109375 12.957031 -9.757812 10.90625 -10.3125 L 8.3125 -11.015625 C 7 -11.347656 6.078125 -11.753906 5.546875 -12.234375 C 5.023438 -12.710938 4.765625 -13.40625 4.765625 -14.3125 C 4.765625 -15.289062 5.082031 -16.082031 5.71875 -16.6875 C 6.351562 -17.289062 7.347656 -17.59375 8.703125 -17.59375 C 9.710938 -17.59375 10.515625 -17.53125 11.109375 -17.40625 C 11.710938 -17.28125 12.257812 -17.035156 12.75 -16.671875 C 13.238281 -16.304688 13.601562 -15.773438 13.84375 -15.078125 C 14.09375 -14.390625 14.257812 -13.476562 14.34375 -12.34375 L 15.890625 -12.34375 L 15.890625 -19.09375 Z M 14.1875 -19.09375 "/></g></g></g><g fill="#222222" fill-opacity="1"><g transform="translate(215.943765, 40.685093)"><g/></g></g><g fill="#222222" fill-opacity="1"><g transform="translate(225.451409, 40.685093)"><g><path d="M 25.90625 -19.09375 L 20.359375 -19.09375 L 20.359375 -17.421875 L 22.390625 -17.421875 L 18.296875 -2.90625 L 14.078125 -17.421875 L 12.109375 -17.421875 L 7.9375 -2.90625 L 3.84375 -17.421875 L 5.875 -17.421875 L 5.875 -19.09375 L 0.328125 -19.09375 L 0.328125 -17.421875 L 1.46875 -17.421875 L 6.515625 0 L 9.078125 0 L 13.109375 -13.953125 L 17.15625 0 L 19.71875 0 L 24.734375 -17.421875 L 25.90625 -17.421875 Z M 25.90625 -19.09375 "/></g></g></g><g fill="#222222" fill-opacity="1"><g transform="translate(251.672463, 40.685093)"><g><path d="M 14.859375 0 L 18.421875 0 L 18.421875 -1.671875 L 16.421875 -1.671875 L 16.421875 -14.21875 C 16.421875 -17.78125 14.21875 -19.5625 9.8125 -19.5625 C 8.476562 -19.5625 7.363281 -19.425781 6.46875 -19.15625 C 5.582031 -18.882812 4.898438 -18.460938 4.421875 -17.890625 C 3.941406 -17.328125 3.597656 -16.722656 3.390625 -16.078125 C 3.179688 -15.441406 3.039062 -14.644531 2.96875 -13.6875 L 4.9375 -13.578125 C 5.03125 -14.960938 5.390625 -15.976562 6.015625 -16.625 C 6.648438 -17.269531 7.914062 -17.59375 9.8125 -17.59375 C 12.65625 -17.59375 14.078125 -16.46875 14.078125 -14.21875 L 14.078125 -10.875 L 7.90625 -10.484375 C 5.65625 -10.328125 4.128906 -9.820312 3.328125 -8.96875 C 2.535156 -8.125 2.140625 -6.75 2.140625 -4.84375 C 2.140625 -3.082031 2.554688 -1.753906 3.390625 -0.859375 C 4.222656 0.0234375 5.6875 0.46875 7.78125 0.46875 C 10.132812 0.46875 12.289062 -0.410156 14.25 -2.171875 Z M 8.109375 -1.4375 C 6.753906 -1.4375 5.796875 -1.707031 5.234375 -2.25 C 4.679688 -2.800781 4.40625 -3.628906 4.40625 -4.734375 C 4.40625 -6.253906 4.65625 -7.273438 5.15625 -7.796875 C 5.65625 -8.316406 6.617188 -8.617188 8.046875 -8.703125 L 14.078125 -9.078125 L 14.078125 -4.03125 C 12.253906 -2.300781 10.265625 -1.4375 8.109375 -1.4375 Z M 8.109375 -1.4375 "/></g></g></g><g fill="#222222" fill-opacity="1"><g transform="translate(272.088852, 40.685093)"><g><path d="M 2.34375 -17.421875 L 4.34375 -17.421875 L 4.34375 -1.671875 L 2.34375 -1.671875 L 2.34375 0 L 8.671875 0 L 8.671875 -1.671875 L 6.671875 -1.671875 L 6.671875 -15.125 C 8.742188 -16.769531 10.914062 -17.59375 13.1875 -17.59375 C 14.445312 -17.59375 15.347656 -17.28125 15.890625 -16.65625 C 16.441406 -16.03125 16.71875 -15.015625 16.71875 -13.609375 L 16.71875 -1.671875 L 14.71875 -1.671875 L 14.71875 0 L 21.0625 0 L 21.0625 -1.671875 L 19.0625 -1.671875 L 19.0625 -13.578125 C 19.0625 -15.628906 18.628906 -17.140625 17.765625 -18.109375 C 16.910156 -19.078125 15.503906 -19.5625 13.546875 -19.5625 C 11.078125 -19.5625 8.71875 -18.691406 6.46875 -16.953125 L 5.90625 -19.09375 L 2.34375 -19.09375 Z M 2.34375 -17.421875 "/></g></g></g><g fill="#222222" fill-opacity="1"><g transform="translate(295.140707, 40.685093)"><g><path d="M 1.171875 -17.421875 L 4.171875 -17.421875 L 4.171875 -4.171875 C 4.171875 -3.617188 4.1875 -3.148438 4.21875 -2.765625 C 4.25 -2.390625 4.332031 -1.976562 4.46875 -1.53125 C 4.601562 -1.09375 4.785156 -0.738281 5.015625 -0.46875 C 5.253906 -0.195312 5.585938 0.0234375 6.015625 0.203125 C 6.453125 0.378906 6.972656 0.46875 7.578125 0.46875 C 8.378906 0.46875 9.335938 0.3125 10.453125 0 L 10.140625 -1.640625 C 9.367188 -1.460938 8.757812 -1.375 8.3125 -1.375 C 7.664062 -1.375 7.203125 -1.582031 6.921875 -2 C 6.648438 -2.425781 6.515625 -3.148438 6.515625 -4.171875 L 6.515625 -17.421875 L 10.015625 -17.421875 L 10.015625 -19.09375 L 6.515625 -19.09375 L 6.515625 -23.359375 L 4.171875 -22.890625 L 4.171875 -19.09375 L 1.171875 -19.09375 Z M 1.171875 -17.421875 "/></g></g></g><g fill="#222222" fill-opacity="1"><g transform="translate(307.250433, 40.685093)"><g/></g></g><g fill="#222222" fill-opacity="1"><g transform="translate(316.758077, 40.685093)"><g><path d="M 1.171875 -17.421875 L 4.171875 -17.421875 L 4.171875 -4.171875 C 4.171875 -3.617188 4.1875 -3.148438 4.21875 -2.765625 C 4.25 -2.390625 4.332031 -1.976562 4.46875 -1.53125 C 4.601562 -1.09375 4.785156 -0.738281 5.015625 -0.46875 C 5.253906 -0.195312 5.585938 0.0234375 6.015625 0.203125 C 6.453125 0.378906 6.972656 0.46875 7.578125 0.46875 C 8.378906 0.46875 9.335938 0.3125 10.453125 0 L 10.140625 -1.640625 C 9.367188 -1.460938 8.757812 -1.375 8.3125 -1.375 C 7.664062 -1.375 7.203125 -1.582031 6.921875 -2 C 6.648438 -2.425781 6.515625 -3.148438 6.515625 -4.171875 L 6.515625 -17.421875 L 10.015625 -17.421875 L 10.015625 -19.09375 L 6.515625 -19.09375 L 6.515625 -23.359375 L 4.171875 -22.890625 L 4.171875 -19.09375 L 1.171875 -19.09375 Z M 1.171875 -17.421875 "/></g></g></g><g fill="#222222" fill-opacity="1"><g transform="translate(328.867803, 40.685093)"><g><path d="M 10.140625 -1.5 C 9.078125 -1.5 8.171875 -1.660156 7.421875 -1.984375 C 6.679688 -2.304688 6.113281 -2.695312 5.71875 -3.15625 C 5.332031 -3.613281 5.023438 -4.234375 4.796875 -5.015625 C 4.578125 -5.804688 4.445312 -6.519531 4.40625 -7.15625 C 4.363281 -7.789062 4.34375 -8.585938 4.34375 -9.546875 C 4.34375 -10.503906 4.363281 -11.296875 4.40625 -11.921875 C 4.445312 -12.554688 4.578125 -13.269531 4.796875 -14.0625 C 5.023438 -14.851562 5.332031 -15.476562 5.71875 -15.9375 C 6.113281 -16.394531 6.679688 -16.785156 7.421875 -17.109375 C 8.171875 -17.429688 9.078125 -17.59375 10.140625 -17.59375 C 11.210938 -17.59375 12.117188 -17.429688 12.859375 -17.109375 C 13.609375 -16.785156 14.175781 -16.394531 14.5625 -15.9375 C 14.957031 -15.476562 15.265625 -14.851562 15.484375 -14.0625 C 15.703125 -13.269531 15.832031 -12.554688 15.875 -11.921875 C 15.925781 -11.296875 15.953125 -10.503906 15.953125 -9.546875 C 15.953125 -8.585938 15.925781 -7.789062 15.875 -7.15625 C 15.832031 -6.519531 15.703125 -5.804688 15.484375 -5.015625 C 15.265625 -4.234375 14.957031 -3.613281 14.5625 -3.15625 C 14.175781 -2.695312 13.609375 -2.304688 12.859375 -1.984375 C 12.117188 -1.660156 11.210938 -1.5 10.140625 -1.5 Z M 10.140625 0.46875 C 11.171875 0.46875 12.09375 0.363281 12.90625 0.15625 C 13.71875 -0.0390625 14.40625 -0.296875 14.96875 -0.609375 C 15.53125 -0.929688 16.015625 -1.347656 16.421875 -1.859375 C 16.835938 -2.378906 17.160156 -2.90625 17.390625 -3.4375 C 17.628906 -3.96875 17.816406 -4.59375 17.953125 -5.3125 C 18.085938 -6.039062 18.175781 -6.722656 18.21875 -7.359375 C 18.269531 -7.992188 18.296875 -8.722656 18.296875 -9.546875 C 18.296875 -10.367188 18.269531 -11.097656 18.21875 -11.734375 C 18.175781 -12.367188 18.085938 -13.046875 17.953125 -13.765625 C 17.816406 -14.492188 17.628906 -15.125 17.390625 -15.65625 C 17.160156 -16.1875 16.835938 -16.707031 16.421875 -17.21875 C 16.015625 -17.726562 15.53125 -18.144531 14.96875 -18.46875 C 14.40625 -18.789062 13.71875 -19.050781 12.90625 -19.25 C 12.09375 -19.457031 11.171875 -19.5625 10.140625 -19.5625 C 9.117188 -19.5625 8.203125 -19.457031 7.390625 -19.25 C 6.578125 -19.050781 5.882812 -18.789062 5.3125 -18.46875 C 4.75 -18.144531 4.257812 -17.726562 3.84375 -17.21875 C 3.4375 -16.707031 3.113281 -16.1875 2.875 -15.65625 C 2.644531 -15.125 2.460938 -14.492188 2.328125 -13.765625 C 2.203125 -13.046875 2.113281 -12.367188 2.0625 -11.734375 C 2.019531 -11.097656 2 -10.367188 2 -9.546875 C 2 -8.722656 2.019531 -7.992188 2.0625 -7.359375 C 2.113281 -6.722656 2.203125 -6.039062 2.328125 -5.3125 C 2.460938 -4.59375 2.644531 -3.96875 2.875 -3.4375 C 3.113281 -2.90625 3.4375 -2.378906 3.84375 -1.859375 C 4.257812 -1.347656 4.75 -0.929688 5.3125 -0.609375 C 5.882812 -0.296875 6.578125 -0.0390625 7.390625 0.15625 C 8.203125 0.363281 9.117188 0.46875 10.140625 0.46875 Z M 10.140625 0.46875 "/></g></g></g><g fill="#222222" fill-opacity="1"><g transform="translate(349.15077, 40.685093)"><g/></g></g><g fill="#222222" fill-opacity="1"><g transform="translate(358.658414, 40.685093)"><g><path d="M 14.1875 -19.09375 L 14.21875 -17.15625 C 13.195312 -18.757812 11.359375 -19.5625 8.703125 -19.5625 C 6.640625 -19.5625 5.078125 -19.078125 4.015625 -18.109375 C 2.960938 -17.140625 2.4375 -15.863281 2.4375 -14.28125 C 2.4375 -12.613281 2.878906 -11.40625 3.765625 -10.65625 C 4.660156 -9.914062 6.140625 -9.28125 8.203125 -8.75 L 10.8125 -8.046875 C 12.101562 -7.710938 13.003906 -7.300781 13.515625 -6.8125 C 14.023438 -6.320312 14.28125 -5.675781 14.28125 -4.875 C 14.28125 -2.625 12.769531 -1.5 9.75 -1.5 C 6.320312 -1.5 4.414062 -3.242188 4.03125 -6.734375 L 2.5 -6.734375 L 2.5 0 L 4.203125 0 L 4.140625 -2.46875 C 5.296875 -0.507812 7.265625 0.46875 10.046875 0.46875 C 14.429688 0.46875 16.625 -1.3125 16.625 -4.875 C 16.625 -6.457031 16.179688 -7.617188 15.296875 -8.359375 C 14.421875 -9.109375 12.957031 -9.757812 10.90625 -10.3125 L 8.3125 -11.015625 C 7 -11.347656 6.078125 -11.753906 5.546875 -12.234375 C 5.023438 -12.710938 4.765625 -13.40625 4.765625 -14.3125 C 4.765625 -15.289062 5.082031 -16.082031 5.71875 -16.6875 C 6.351562 -17.289062 7.347656 -17.59375 8.703125 -17.59375 C 9.710938 -17.59375 10.515625 -17.53125 11.109375 -17.40625 C 11.710938 -17.28125 12.257812 -17.035156 12.75 -16.671875 C 13.238281 -16.304688 13.601562 -15.773438 13.84375 -15.078125 C 14.09375 -14.390625 14.257812 -13.476562 14.34375 -12.34375 L 15.890625 -12.34375 L 15.890625 -19.09375 Z M 14.1875 -19.09375 "/></g></g></g><g fill="#222222" fill-opacity="1"><g transform="translate(377.606956, 40.685093)"><g><path d="M 2 -23.359375 L 4 -23.359375 L 4 -1.671875 L 2 -1.671875 L 2 0 L 8.34375 0 L 8.34375 -1.671875 L 6.34375 -1.671875 L 6.34375 -15.125 C 8.40625 -16.769531 10.570312 -17.59375 12.84375 -17.59375 C 14.113281 -17.59375 15.019531 -17.28125 15.5625 -16.65625 C 16.113281 -16.03125 16.390625 -15.015625 16.390625 -13.609375 L 16.390625 -1.671875 L 14.390625 -1.671875 L 14.390625 0 L 20.71875 0 L 20.71875 -1.671875 L 18.71875 -1.671875 L 18.71875 -13.578125 C 18.71875 -15.628906 18.289062 -17.140625 17.4375 -18.109375 C 16.582031 -19.078125 15.175781 -19.5625 13.21875 -19.5625 C 10.851562 -19.5625 8.5625 -18.75 6.34375 -17.125 L 6.34375 -25.03125 L 2 -25.03125 Z M 2 -23.359375 "/></g></g></g><g fill="#222222" fill-opacity="1"><g transform="translate(400.325176, 40.685093)"><g><path d="M 14.859375 0 L 18.421875 0 L 18.421875 -1.671875 L 16.421875 -1.671875 L 16.421875 -14.21875 C 16.421875 -17.78125 14.21875 -19.5625 9.8125 -19.5625 C 8.476562 -19.5625 7.363281 -19.425781 6.46875 -19.15625 C 5.582031 -18.882812 4.898438 -18.460938 4.421875 -17.890625 C 3.941406 -17.328125 3.597656 -16.722656 3.390625 -16.078125 C 3.179688 -15.441406 3.039062 -14.644531 2.96875 -13.6875 L 4.9375 -13.578125 C 5.03125 -14.960938 5.390625 -15.976562 6.015625 -16.625 C 6.648438 -17.269531 7.914062 -17.59375 9.8125 -17.59375 C 12.65625 -17.59375 14.078125 -16.46875 14.078125 -14.21875 L 14.078125 -10.875 L 7.90625 -10.484375 C 5.65625 -10.328125 4.128906 -9.820312 3.328125 -8.96875 C 2.535156 -8.125 2.140625 -6.75 2.140625 -4.84375 C 2.140625 -3.082031 2.554688 -1.753906 3.390625 -0.859375 C 4.222656 0.0234375 5.6875 0.46875 7.78125 0.46875 C 10.132812 0.46875 12.289062 -0.410156 14.25 -2.171875 Z M 8.109375 -1.4375 C 6.753906 -1.4375 5.796875 -1.707031 5.234375 -2.25 C 4.679688 -2.800781 4.40625 -3.628906 4.40625 -4.734375 C 4.40625 -6.253906 4.65625 -7.273438 5.15625 -7.796875 C 5.65625 -8.316406 6.617188 -8.617188 8.046875 -8.703125 L 14.078125 -9.078125 L 14.078125 -4.03125 C 12.253906 -2.300781 10.265625 -1.4375 8.109375 -1.4375 Z M 8.109375 -1.4375 "/></g></g></g><g fill="#222222" fill-opacity="1"><g transform="translate(420.741589, 40.685093)"><g><path d="M 5.90625 -19.09375 L 2.34375 -19.09375 L 2.34375 -17.421875 L 4.34375 -17.421875 L 4.34375 -1.671875 L 2.34375 -1.671875 L 2.34375 0 L 9.34375 0 L 9.34375 -1.671875 L 6.671875 -1.671875 L 6.671875 -12.984375 C 8.179688 -15.765625 10.507812 -17.210938 13.65625 -17.328125 L 13.65625 -19.5625 C 10.539062 -19.445312 8.203125 -18.066406 6.640625 -15.421875 Z M 5.90625 -19.09375 "/></g></g></g><g fill="#222222" fill-opacity="1"><g transform="translate(434.719472, 40.685093)"><g><path d="M 10.3125 0.46875 C 11.738281 0.46875 12.9375 0.300781 13.90625 -0.03125 C 14.875 -0.363281 15.609375 -0.847656 16.109375 -1.484375 C 16.609375 -2.117188 16.96875 -2.773438 17.1875 -3.453125 C 17.40625 -4.128906 17.5625 -4.945312 17.65625 -5.90625 L 15.71875 -6 C 15.582031 -4.539062 15.132812 -3.425781 14.375 -2.65625 C 13.625 -1.882812 12.25 -1.5 10.25 -1.5 C 8.039062 -1.5 6.5625 -2.070312 5.8125 -3.21875 C 5.070312 -4.363281 4.691406 -6.296875 4.671875 -9.015625 L 17.953125 -9.015625 L 17.953125 -9.546875 C 17.953125 -10.722656 17.90625 -11.738281 17.8125 -12.59375 C 17.726562 -13.457031 17.53125 -14.351562 17.21875 -15.28125 C 16.90625 -16.21875 16.476562 -16.972656 15.9375 -17.546875 C 15.394531 -18.128906 14.640625 -18.609375 13.671875 -18.984375 C 12.703125 -19.367188 11.535156 -19.5625 10.171875 -19.5625 C 8.816406 -19.5625 7.648438 -19.367188 6.671875 -18.984375 C 5.691406 -18.609375 4.921875 -18.128906 4.359375 -17.546875 C 3.804688 -16.972656 3.375 -16.21875 3.0625 -15.28125 C 2.757812 -14.351562 2.5625 -13.457031 2.46875 -12.59375 C 2.382812 -11.738281 2.34375 -10.722656 2.34375 -9.546875 C 2.34375 -6.054688 2.890625 -3.515625 3.984375 -1.921875 C 5.085938 -0.328125 7.195312 0.46875 10.3125 0.46875 Z M 10.140625 -17.59375 C 11.273438 -17.59375 12.210938 -17.425781 12.953125 -17.09375 C 13.703125 -16.757812 14.253906 -16.25 14.609375 -15.5625 C 14.972656 -14.882812 15.21875 -14.191406 15.34375 -13.484375 C 15.476562 -12.773438 15.5625 -11.894531 15.59375 -10.84375 L 4.671875 -10.84375 C 4.691406 -11.84375 4.773438 -12.695312 4.921875 -13.40625 C 5.066406 -14.125 5.320312 -14.820312 5.6875 -15.5 C 6.050781 -16.175781 6.609375 -16.691406 7.359375 -17.046875 C 8.109375 -17.410156 9.035156 -17.59375 10.140625 -17.59375 Z M 10.140625 -17.59375 "/></g></g></g><g fill="#222222" fill-opacity="1"><g transform="translate(454.668828, 40.685093)"><g><path d="M 3.734375 0.265625 C 4.421875 0.265625 4.863281 0.09375 5.0625 -0.25 C 5.269531 -0.59375 5.375 -1.066406 5.375 -1.671875 C 5.375 -1.960938 5.351562 -2.203125 5.3125 -2.390625 C 5.28125 -2.578125 5.210938 -2.773438 5.109375 -2.984375 C 5.015625 -3.191406 4.847656 -3.351562 4.609375 -3.46875 C 4.378906 -3.582031 4.085938 -3.640625 3.734375 -3.640625 C 3.085938 -3.640625 2.664062 -3.457031 2.46875 -3.09375 C 2.269531 -2.738281 2.171875 -2.265625 2.171875 -1.671875 C 2.171875 -1.285156 2.191406 -0.976562 2.234375 -0.75 C 2.273438 -0.519531 2.425781 -0.289062 2.6875 -0.0625 C 2.945312 0.15625 3.296875 0.265625 3.734375 0.265625 Z M 3.734375 0.265625 "/></g></g></g><g fill="#222222" fill-opacity="1"><g transform="translate(462.20823, 40.685093)"><g/></g></g><g fill="#222222" fill-opacity="1"><g transform="translate(471.71585, 40.685093)"><g><path d="M 21.15625 0 L 27.5625 0 L 27.5625 -1.671875 L 25.5625 -1.671875 L 25.5625 -22.6875 L 27.5625 -22.6875 L 27.5625 -24.359375 L 22.265625 -24.359375 L 14.71875 -4.734375 L 7.640625 -24.359375 L 2.34375 -24.359375 L 2.34375 -22.6875 L 4.34375 -22.6875 L 4.34375 -1.671875 L 2.34375 -1.671875 L 2.34375 0 L 8.75 0 L 8.75 -1.671875 L 6.734375 -1.671875 L 6.734375 -20.328125 L 13.484375 -1.875 L 15.890625 -1.875 L 23.15625 -20.59375 L 23.15625 -1.671875 L 21.15625 -1.671875 Z M 21.15625 0 "/></g></g></g><g fill="#222222" fill-opacity="1"><g transform="translate(501.606521, 40.685093)"><g><path d="M 14.859375 0 L 18.421875 0 L 18.421875 -1.671875 L 16.421875 -1.671875 L 16.421875 -14.21875 C 16.421875 -17.78125 14.21875 -19.5625 9.8125 -19.5625 C 8.476562 -19.5625 7.363281 -19.425781 6.46875 -19.15625 C 5.582031 -18.882812 4.898438 -18.460938 4.421875 -17.890625 C 3.941406 -17.328125 3.597656 -16.722656 3.390625 -16.078125 C 3.179688 -15.441406 3.039062 -14.644531 2.96875 -13.6875 L 4.9375 -13.578125 C 5.03125 -14.960938 5.390625 -15.976562 6.015625 -16.625 C 6.648438 -17.269531 7.914062 -17.59375 9.8125 -17.59375 C 12.65625 -17.59375 14.078125 -16.46875 14.078125 -14.21875 L 14.078125 -10.875 L 7.90625 -10.484375 C 5.65625 -10.328125 4.128906 -9.820312 3.328125 -8.96875 C 2.535156 -8.125 2.140625 -6.75 2.140625 -4.84375 C 2.140625 -3.082031 2.554688 -1.753906 3.390625 -0.859375 C 4.222656 0.0234375 5.6875 0.46875 7.78125 0.46875 C 10.132812 0.46875 12.289062 -0.410156 14.25 -2.171875 Z M 8.109375 -1.4375 C 6.753906 -1.4375 5.796875 -1.707031 5.234375 -2.25 C 4.679688 -2.800781 4.40625 -3.628906 4.40625 -4.734375 C 4.40625 -6.253906 4.65625 -7.273438 5.15625 -7.796875 C 5.65625 -8.316406 6.617188 -8.617188 8.046875 -8.703125 L 14.078125 -9.078125 L 14.078125 -4.03125 C 12.253906 -2.300781 10.265625 -1.4375 8.109375 -1.4375 Z M 8.109375 -1.4375 "/></g></g></g><g fill="#222222" fill-opacity="1"><g transform="translate(522.022887, 40.685093)"><g><path d="M 2 -23.359375 L 4 -23.359375 L 4 -1.671875 L 2 -1.671875 L 2 0 L 8.34375 0 L 8.34375 -1.671875 L 6.34375 -1.671875 L 6.34375 -9.40625 L 9.015625 -9.40625 L 14.3125 -1.671875 L 12.546875 -1.671875 L 12.546875 0 L 18.890625 0 L 18.890625 -1.671875 L 16.921875 -1.671875 L 11.109375 -10.109375 L 16.28125 -17.421875 L 18.296875 -17.421875 L 18.296875 -19.09375 L 11.953125 -19.09375 L 11.953125 -17.421875 L 13.6875 -17.421875 L 9.34375 -11.21875 L 6.34375 -11.21875 L 6.34375 -25.03125 L 2 -25.03125 Z M 2 -23.359375 "/></g></g></g><g fill="#222222" fill-opacity="1"><g transform="translate(541.90552, 40.685093)"><g><path d="M 10.3125 0.46875 C 11.738281 0.46875 12.9375 0.300781 13.90625 -0.03125 C 14.875 -0.363281 15.609375 -0.847656 16.109375 -1.484375 C 16.609375 -2.117188 16.96875 -2.773438 17.1875 -3.453125 C 17.40625 -4.128906 17.5625 -4.945312 17.65625 -5.90625 L 15.71875 -6 C 15.582031 -4.539062 15.132812 -3.425781 14.375 -2.65625 C 13.625 -1.882812 12.25 -1.5 10.25 -1.5 C 8.039062 -1.5 6.5625 -2.070312 5.8125 -3.21875 C 5.070312 -4.363281 4.691406 -6.296875 4.671875 -9.015625 L 17.953125 -9.015625 L 17.953125 -9.546875 C 17.953125 -10.722656 17.90625 -11.738281 17.8125 -12.59375 C 17.726562 -13.457031 17.53125 -14.351562 17.21875 -15.28125 C 16.90625 -16.21875 16.476562 -16.972656 15.9375 -17.546875 C 15.394531 -18.128906 14.640625 -18.609375 13.671875 -18.984375 C 12.703125 -19.367188 11.535156 -19.5625 10.171875 -19.5625 C 8.816406 -19.5625 7.648438 -19.367188 6.671875 -18.984375 C 5.691406 -18.609375 4.921875 -18.128906 4.359375 -17.546875 C 3.804688 -16.972656 3.375 -16.21875 3.0625 -15.28125 C 2.757812 -14.351562 2.5625 -13.457031 2.46875 -12.59375 C 2.382812 -11.738281 2.34375 -10.722656 2.34375 -9.546875 C 2.34375 -6.054688 2.890625 -3.515625 3.984375 -1.921875 C 5.085938 -0.328125 7.195312 0.46875 10.3125 0.46875 Z M 10.140625 -17.59375 C 11.273438 -17.59375 12.210938 -17.425781 12.953125 -17.09375 C 13.703125 -16.757812 14.253906 -16.25 14.609375 -15.5625 C 14.972656 -14.882812 15.21875 -14.191406 15.34375 -13.484375 C 15.476562 -12.773438 15.5625 -11.894531 15.59375 -10.84375 L 4.671875 -10.84375 C 4.691406 -11.84375 4.773438 -12.695312 4.921875 -13.40625 C 5.066406 -14.125 5.320312 -14.820312 5.6875 -15.5 C 6.050781 -16.175781 6.609375 -16.691406 7.359375 -17.046875 C 8.109375 -17.410156 9.035156 -17.59375 10.140625 -17.59375 Z M 10.140625 -17.59375 "/></g></g></g><g fill="#222222" fill-opacity="1"><g transform="translate(561.854875, 40.685093)"><g/></g></g><g fill="#222222" fill-opacity="1"><g transform="translate(571.362543, 40.685093)"><g><path d="M 2.34375 -17.421875 L 4.34375 -17.421875 L 4.34375 -1.671875 L 2.34375 -1.671875 L 2.34375 0 L 8.671875 0 L 8.671875 -1.671875 L 6.671875 -1.671875 L 6.671875 -19.09375 L 2.34375 -19.09375 Z M 5.5 -22.421875 C 6.144531 -22.421875 6.554688 -22.578125 6.734375 -22.890625 C 6.921875 -23.203125 7.015625 -23.640625 7.015625 -24.203125 C 7.015625 -24.578125 6.988281 -24.867188 6.9375 -25.078125 C 6.894531 -25.285156 6.753906 -25.488281 6.515625 -25.6875 C 6.285156 -25.894531 5.945312 -26 5.5 -26 C 5.082031 -26 4.757812 -25.894531 4.53125 -25.6875 C 4.3125 -25.488281 4.179688 -25.285156 4.140625 -25.078125 C 4.097656 -24.867188 4.078125 -24.578125 4.078125 -24.203125 C 4.078125 -23.835938 4.097656 -23.550781 4.140625 -23.34375 C 4.179688 -23.132812 4.3125 -22.925781 4.53125 -22.71875 C 4.757812 -22.519531 5.082031 -22.421875 5.5 -22.421875 Z M 5.5 -22.421875 "/></g></g></g><g fill="#222222" fill-opacity="1"><g transform="translate(582.037807, 40.685093)"><g><path d="M 1.171875 -17.421875 L 4.171875 -17.421875 L 4.171875 -4.171875 C 4.171875 -3.617188 4.1875 -3.148438 4.21875 -2.765625 C 4.25 -2.390625 4.332031 -1.976562 4.46875 -1.53125 C 4.601562 -1.09375 4.785156 -0.738281 5.015625 -0.46875 C 5.253906 -0.195312 5.585938 0.0234375 6.015625 0.203125 C 6.453125 0.378906 6.972656 0.46875 7.578125 0.46875 C 8.378906 0.46875 9.335938 0.3125 10.453125 0 L 10.140625 -1.640625 C 9.367188 -1.460938 8.757812 -1.375 8.3125 -1.375 C 7.664062 -1.375 7.203125 -1.582031 6.921875 -2 C 6.648438 -2.425781 6.515625 -3.148438 6.515625 -4.171875 L 6.515625 -17.421875 L 10.015625 -17.421875 L 10.015625 -19.09375 L 6.515625 -19.09375 L 6.515625 -23.359375 L 4.171875 -22.890625 L 4.171875 -19.09375 L 1.171875 -19.09375 Z M 1.171875 -17.421875 "/></g></g></g><g fill="#222222" fill-opacity="1"><g transform="translate(594.147509, 40.685093)"><g/></g></g><g fill="#222222" fill-opacity="1"><g transform="translate(603.655129, 40.685093)"><g><path d="M 10.3125 0.46875 C 11.738281 0.46875 12.9375 0.300781 13.90625 -0.03125 C 14.875 -0.363281 15.609375 -0.847656 16.109375 -1.484375 C 16.609375 -2.117188 16.96875 -2.773438 17.1875 -3.453125 C 17.40625 -4.128906 17.5625 -4.945312 17.65625 -5.90625 L 15.71875 -6 C 15.582031 -4.539062 15.132812 -3.425781 14.375 -2.65625 C 13.625 -1.882812 12.25 -1.5 10.25 -1.5 C 8.039062 -1.5 6.5625 -2.070312 5.8125 -3.21875 C 5.070312 -4.363281 4.691406 -6.296875 4.671875 -9.015625 L 17.953125 -9.015625 L 17.953125 -9.546875 C 17.953125 -10.722656 17.90625 -11.738281 17.8125 -12.59375 C 17.726562 -13.457031 17.53125 -14.351562 17.21875 -15.28125 C 16.90625 -16.21875 16.476562 -16.972656 15.9375 -17.546875 C 15.394531 -18.128906 14.640625 -18.609375 13.671875 -18.984375 C 12.703125 -19.367188 11.535156 -19.5625 10.171875 -19.5625 C 8.816406 -19.5625 7.648438 -19.367188 6.671875 -18.984375 C 5.691406 -18.609375 4.921875 -18.128906 4.359375 -17.546875 C 3.804688 -16.972656 3.375 -16.21875 3.0625 -15.28125 C 2.757812 -14.351562 2.5625 -13.457031 2.46875 -12.59375 C 2.382812 -11.738281 2.34375 -10.722656 2.34375 -9.546875 C 2.34375 -6.054688 2.890625 -3.515625 3.984375 -1.921875 C 5.085938 -0.328125 7.195312 0.46875 10.3125 0.46875 Z M 10.140625 -17.59375 C 11.273438 -17.59375 12.210938 -17.425781 12.953125 -17.09375 C 13.703125 -16.757812 14.253906 -16.25 14.609375 -15.5625 C 14.972656 -14.882812 15.21875 -14.191406 15.34375 -13.484375 C 15.476562 -12.773438 15.5625 -11.894531 15.59375 -10.84375 L 4.671875 -10.84375 C 4.691406 -11.84375 4.773438 -12.695312 4.921875 -13.40625 C 5.066406 -14.125 5.320312 -14.820312 5.6875 -15.5 C 6.050781 -16.175781 6.609375 -16.691406 7.359375 -17.046875 C 8.109375 -17.410156 9.035156 -17.59375 10.140625 -17.59375 Z M 10.140625 -17.59375 "/></g></g></g><g fill="#222222" fill-opacity="1"><g transform="translate(623.604484, 40.685093)"><g><path d="M 14.859375 0 L 18.421875 0 L 18.421875 -1.671875 L 16.421875 -1.671875 L 16.421875 -14.21875 C 16.421875 -17.78125 14.21875 -19.5625 9.8125 -19.5625 C 8.476562 -19.5625 7.363281 -19.425781 6.46875 -19.15625 C 5.582031 -18.882812 4.898438 -18.460938 4.421875 -17.890625 C 3.941406 -17.328125 3.597656 -16.722656 3.390625 -16.078125 C 3.179688 -15.441406 3.039062 -14.644531 2.96875 -13.6875 L 4.9375 -13.578125 C 5.03125 -14.960938 5.390625 -15.976562 6.015625 -16.625 C 6.648438 -17.269531 7.914062 -17.59375 9.8125 -17.59375 C 12.65625 -17.59375 14.078125 -16.46875 14.078125 -14.21875 L 14.078125 -10.875 L 7.90625 -10.484375 C 5.65625 -10.328125 4.128906 -9.820312 3.328125 -8.96875 C 2.535156 -8.125 2.140625 -6.75 2.140625 -4.84375 C 2.140625 -3.082031 2.554688 -1.753906 3.390625 -0.859375 C 4.222656 0.0234375 5.6875 0.46875 7.78125 0.46875 C 10.132812 0.46875 12.289062 -0.410156 14.25 -2.171875 Z M 8.109375 -1.4375 C 6.753906 -1.4375 5.796875 -1.707031 5.234375 -2.25 C 4.679688 -2.800781 4.40625 -3.628906 4.40625 -4.734375 C 4.40625 -6.253906 4.65625 -7.273438 5.15625 -7.796875 C 5.65625 -8.316406 6.617188 -8.617188 8.046875 -8.703125 L 14.078125 -9.078125 L 14.078125 -4.03125 C 12.253906 -2.300781 10.265625 -1.4375 8.109375 -1.4375 Z M 8.109375 -1.4375 "/></g></g></g><g fill="#222222" fill-opacity="1"><g transform="translate(644.020897, 40.685093)"><g><path d="M 14.1875 -19.09375 L 14.21875 -17.15625 C 13.195312 -18.757812 11.359375 -19.5625 8.703125 -19.5625 C 6.640625 -19.5625 5.078125 -19.078125 4.015625 -18.109375 C 2.960938 -17.140625 2.4375 -15.863281 2.4375 -14.28125 C 2.4375 -12.613281 2.878906 -11.40625 3.765625 -10.65625 C 4.660156 -9.914062 6.140625 -9.28125 8.203125 -8.75 L 10.8125 -8.046875 C 12.101562 -7.710938 13.003906 -7.300781 13.515625 -6.8125 C 14.023438 -6.320312 14.28125 -5.675781 14.28125 -4.875 C 14.28125 -2.625 12.769531 -1.5 9.75 -1.5 C 6.320312 -1.5 4.414062 -3.242188 4.03125 -6.734375 L 2.5 -6.734375 L 2.5 0 L 4.203125 0 L 4.140625 -2.46875 C 5.296875 -0.507812 7.265625 0.46875 10.046875 0.46875 C 14.429688 0.46875 16.625 -1.3125 16.625 -4.875 C 16.625 -6.457031 16.179688 -7.617188 15.296875 -8.359375 C 14.421875 -9.109375 12.957031 -9.757812 10.90625 -10.3125 L 8.3125 -11.015625 C 7 -11.347656 6.078125 -11.753906 5.546875 -12.234375 C 5.023438 -12.710938 4.765625 -13.40625 4.765625 -14.3125 C 4.765625 -15.289062 5.082031 -16.082031 5.71875 -16.6875 C 6.351562 -17.289062 7.347656 -17.59375 8.703125 -17.59375 C 9.710938 -17.59375 10.515625 -17.53125 11.109375 -17.40625 C 11.710938 -17.28125 12.257812 -17.035156 12.75 -16.671875 C 13.238281 -16.304688 13.601562 -15.773438 13.84375 -15.078125 C 14.09375 -14.390625 14.257812 -13.476562 14.34375 -12.34375 L 15.890625 -12.34375 L 15.890625 -19.09375 Z M 14.1875 -19.09375 "/></g></g></g><g fill="#222222" fill-opacity="1"><g transform="translate(662.969415, 40.685093)"><g><path d="M 3.296875 7.578125 L 6.3125 7.578125 C 7 7.578125 7.507812 7.40625 7.84375 7.0625 C 8.175781 6.71875 8.488281 6.164062 8.78125 5.40625 L 17.453125 -17.421875 L 18.75 -17.421875 L 18.75 -19.09375 L 13.21875 -19.09375 L 13.21875 -17.421875 L 15.078125 -17.421875 L 9.546875 -2.53125 L 3.96875 -17.421875 L 5.875 -17.421875 L 5.875 -19.09375 L 0.328125 -19.09375 L 0.328125 -17.421875 L 1.640625 -17.421875 L 8.4375 0.4375 L 6.90625 4.53125 C 6.789062 4.84375 6.6875 5.066406 6.59375 5.203125 C 6.507812 5.335938 6.367188 5.453125 6.171875 5.546875 C 5.972656 5.648438 5.671875 5.710938 5.265625 5.734375 L 3.296875 5.90625 Z M 3.296875 7.578125 "/></g></g></g><g fill="#222222" fill-opacity="1"><g transform="translate(682.051426, 40.685093)"><g><path d="M 3.734375 0.265625 C 4.421875 0.265625 4.863281 0.09375 5.0625 -0.25 C 5.269531 -0.59375 5.375 -1.066406 5.375 -1.671875 C 5.375 -1.960938 5.351562 -2.203125 5.3125 -2.390625 C 5.28125 -2.578125 5.210938 -2.773438 5.109375 -2.984375 C 5.015625 -3.191406 4.847656 -3.351562 4.609375 -3.46875 C 4.378906 -3.582031 4.085938 -3.640625 3.734375 -3.640625 C 3.085938 -3.640625 2.664062 -3.457031 2.46875 -3.09375 C 2.269531 -2.738281 2.171875 -2.265625 2.171875 -1.671875 C 2.171875 -1.285156 2.191406 -0.976562 2.234375 -0.75 C 2.273438 -0.519531 2.425781 -0.289062 2.6875 -0.0625 C 2.945312 0.15625 3.296875 0.265625 3.734375 0.265625 Z M 3.734375 0.265625 "/></g></g></g></g></g></g><g clip-path="url(#ecfc29abe0)"><g transform="matrix(1, 0, 0, 1, 0, -0.000000000000008826)"><g clip-path="url(#4792c410af)"><g fill="#222222" fill-opacity="1"><g transform="translate(-0.00000000000004261, 74.919956)"><g><path d="M 21.03125 0 C 23.207031 0 25.082031 -0.210938 26.65625 -0.640625 C 28.238281 -1.066406 29.484375 -1.609375 30.390625 -2.265625 C 31.304688 -2.929688 32.023438 -3.789062 32.546875 -4.84375 C 33.078125 -5.894531 33.421875 -6.914062 33.578125 -7.90625 C 33.734375 -8.90625 33.8125 -10.066406 33.8125 -11.390625 C 33.8125 -14.304688 33.265625 -16.671875 32.171875 -18.484375 C 31.085938 -20.296875 28.96875 -21.492188 25.8125 -22.078125 C 28.03125 -22.890625 29.53125 -24.09375 30.3125 -25.6875 C 31.09375 -27.289062 31.484375 -29.300781 31.484375 -31.71875 C 31.484375 -33 31.40625 -34.113281 31.25 -35.0625 C 31.09375 -36.019531 30.75 -36.992188 30.21875 -37.984375 C 29.695312 -38.984375 28.976562 -39.800781 28.0625 -40.4375 C 27.144531 -41.082031 25.894531 -41.609375 24.3125 -42.015625 C 22.738281 -42.429688 20.863281 -42.640625 18.6875 -42.640625 L 4.09375 -42.640625 L 4.09375 -39.71875 L 7.59375 -39.71875 L 7.59375 -2.921875 L 4.09375 -2.921875 L 4.09375 0 Z M 11.796875 -3.453125 L 11.796875 -20.03125 L 21.03125 -20.03125 C 24.457031 -20.03125 26.742188 -19.316406 27.890625 -17.890625 C 29.035156 -16.472656 29.609375 -14.382812 29.609375 -11.625 C 29.609375 -8.9375 29.035156 -6.898438 27.890625 -5.515625 C 26.742188 -4.140625 24.457031 -3.453125 21.03125 -3.453125 Z M 11.796875 -23.59375 L 11.796875 -39.1875 L 18.6875 -39.1875 C 22.113281 -39.1875 24.398438 -38.535156 25.546875 -37.234375 C 26.703125 -35.929688 27.28125 -33.972656 27.28125 -31.359375 C 27.28125 -28.828125 26.703125 -26.898438 25.546875 -25.578125 C 24.398438 -24.253906 22.113281 -23.59375 18.6875 -23.59375 Z M 11.796875 -23.59375 "/></g></g></g><g fill="#222222" fill-opacity="1"><g transform="translate(36.724956, 74.919956)"><g><path d="M 4.09375 0 L 32.703125 0 L 32.703125 -9.234375 L 29.4375 -9.234375 L 29.4375 -3.453125 L 11.796875 -3.453125 L 11.796875 -19.921875 L 28.625 -19.921875 L 28.625 -23.421875 L 11.796875 -23.421875 L 11.796875 -39.1875 L 28.265625 -39.1875 L 28.265625 -33.40625 L 31.546875 -33.40625 L 31.546875 -42.640625 L 4.09375 -42.640625 L 4.09375 -39.71875 L 7.59375 -39.71875 L 7.59375 -2.921875 L 4.09375 -2.921875 Z M 4.09375 0 "/></g></g></g><g fill="#222222" fill-opacity="1"><g transform="translate(72.924437, 74.919956)"><g><path d="M 30.84375 -33.40625 L 30.84375 -42.640625 L 0.578125 -42.640625 L 0.578125 -33.40625 L 3.859375 -33.40625 L 3.859375 -39.1875 L 13.609375 -39.1875 L 13.609375 -2.921875 L 8.9375 -2.921875 L 8.9375 0 L 22.484375 0 L 22.484375 -2.921875 L 17.8125 -2.921875 L 17.8125 -39.1875 L 27.5625 -39.1875 L 27.5625 -33.40625 Z M 30.84375 -33.40625 "/></g></g></g><g fill="#222222" fill-opacity="1"><g transform="translate(104.336225, 74.919956)"><g><path d="M 30.84375 -33.40625 L 30.84375 -42.640625 L 0.578125 -42.640625 L 0.578125 -33.40625 L 3.859375 -33.40625 L 3.859375 -39.1875 L 13.609375 -39.1875 L 13.609375 -2.921875 L 8.9375 -2.921875 L 8.9375 0 L 22.484375 0 L 22.484375 -2.921875 L 17.8125 -2.921875 L 17.8125 -39.1875 L 27.5625 -39.1875 L 27.5625 -33.40625 Z M 30.84375 -33.40625 "/></g></g></g><g fill="#222222" fill-opacity="1"><g transform="translate(135.748013, 74.919956)"><g><path d="M 4.09375 0 L 32.703125 0 L 32.703125 -9.234375 L 29.4375 -9.234375 L 29.4375 -3.453125 L 11.796875 -3.453125 L 11.796875 -19.921875 L 28.625 -19.921875 L 28.625 -23.421875 L 11.796875 -23.421875 L 11.796875 -39.1875 L 28.265625 -39.1875 L 28.265625 -33.40625 L 31.546875 -33.40625 L 31.546875 -42.640625 L 4.09375 -42.640625 L 4.09375 -39.71875 L 7.59375 -39.71875 L 7.59375 -2.921875 L 4.09375 -2.921875 Z M 4.09375 0 "/></g></g></g><g fill="#222222" fill-opacity="1"><g transform="translate(171.947494, 74.919956)"><g><path d="M 16.40625 -17.8125 C 18.507812 -17.8125 20.125 -17.546875 21.25 -17.015625 C 22.382812 -16.492188 23.300781 -15.4375 24 -13.84375 L 29.90625 0 L 36.734375 0 L 36.734375 -2.921875 L 33.109375 -2.921875 L 28.09375 -14.546875 C 27.269531 -16.335938 26.316406 -17.617188 25.234375 -18.390625 C 26.828125 -18.785156 28.140625 -19.367188 29.171875 -20.140625 C 30.203125 -20.921875 30.960938 -21.875 31.453125 -23 C 31.941406 -24.132812 32.265625 -25.25 32.421875 -26.34375 C 32.578125 -27.4375 32.65625 -28.722656 32.65625 -30.203125 C 32.65625 -31.679688 32.582031 -32.941406 32.4375 -33.984375 C 32.300781 -35.035156 31.976562 -36.144531 31.46875 -37.3125 C 30.96875 -38.488281 30.269531 -39.4375 29.375 -40.15625 C 28.476562 -40.875 27.222656 -41.46875 25.609375 -41.9375 C 23.992188 -42.40625 22.078125 -42.640625 19.859375 -42.640625 L 4.09375 -42.640625 L 4.09375 -39.71875 L 7.59375 -39.71875 L 7.59375 -2.921875 L 4.09375 -2.921875 L 4.09375 0 L 15.296875 0 L 15.296875 -2.921875 L 11.796875 -2.921875 L 11.796875 -17.8125 Z M 11.796875 -21.265625 L 11.796875 -39.1875 L 19.859375 -39.1875 C 21.722656 -39.1875 23.257812 -38.960938 24.46875 -38.515625 C 25.675781 -38.066406 26.550781 -37.394531 27.09375 -36.5 C 27.644531 -35.601562 28.003906 -34.6875 28.171875 -33.75 C 28.347656 -32.820312 28.4375 -31.640625 28.4375 -30.203125 C 28.4375 -28.796875 28.347656 -27.625 28.171875 -26.6875 C 28.003906 -25.757812 27.644531 -24.847656 27.09375 -23.953125 C 26.550781 -23.054688 25.675781 -22.382812 24.46875 -21.9375 C 23.257812 -21.488281 21.722656 -21.265625 19.859375 -21.265625 Z M 11.796875 -21.265625 "/></g></g></g></g></g></g></svg>